<svg width="47" height="45" viewBox="0 0 47 45" fill="none" xmlns="http://www.w3.org/2000/svg">
<path d="M21.8493 1.20606C22.3621 -0.402315 24.6379 -0.402312 25.1507 1.20606L29.4481 14.6842C29.6783 15.406 30.3507 15.8946 31.1084 15.8904L45.2548 15.8125C46.9429 15.8032 47.6461 17.9676 46.275 18.9524L34.7845 27.2044C34.1691 27.6463 33.9122 28.4369 34.1503 29.1561L38.5959 42.5861C39.1264 44.1887 37.2852 45.5264 35.925 44.5266L24.5261 36.1485C23.9156 35.6998 23.0844 35.6998 22.4739 36.1485L11.075 44.5266C9.71477 45.5264 7.8736 44.1887 8.4041 42.5861L12.8497 29.1561C13.0878 28.4369 12.8309 27.6463 12.2155 27.2044L0.725042 18.9524C-0.646144 17.9676 0.0571243 15.8032 1.74525 15.8125L15.8916 15.8904C16.6493 15.8946 17.3217 15.406 17.5519 14.6842L21.8493 1.20606Z" fill="#FFEB3A"/>
</svg>
