<svg width="552" height="98" viewBox="0 0 552 98" fill="none" xmlns="http://www.w3.org/2000/svg">
<path d="M275.599 34.3291C275.933 34.5966 276.067 34.7972 276.267 34.864C285.427 38.4076 288.904 46.4309 287.901 55.9251C286.965 64.3495 280.881 71.0355 271.988 73.1751C270.384 73.5762 268.712 73.8437 267.041 73.8437C257.613 73.9105 248.186 73.9105 238.759 73.9105C238.358 73.9105 237.89 73.8437 237.288 73.7768V0.497727C237.622 0.096564 238.09 0.0965803 238.491 0.0965803C247.451 0.0965803 256.343 -0.170874 265.235 0.230289C279.343 0.832033 288.035 16.0094 281.616 28.178C280.212 30.7855 278.073 32.7245 275.599 34.3291ZM248.119 63.2797C254.605 63.0791 260.756 63.7477 266.907 62.8785C273.459 61.9425 276.802 57.5966 276.401 51.0443C276.067 46.0297 272.59 42.2855 266.974 41.4832C260.89 40.614 254.672 41.0152 248.52 41.2826C248.387 41.2826 248.32 41.4832 248.119 41.6169V63.2797ZM248.052 29.9832C250.66 30.5181 262.895 30.4512 264.968 29.8495C268.512 28.9134 271.119 26.9745 272.055 23.2303C273.794 16.678 269.782 11.1286 262.828 10.7274C258.282 10.4599 253.669 10.6605 249.122 10.6605C248.788 10.6605 248.454 10.8611 247.985 10.9948C248.052 17.2797 248.052 23.5646 248.052 29.9832ZM0 0.364018C0.869186 -0.104005 1.60465 0.0297158 2.34012 0.0297158C9.89535 0.0297158 17.4506 -0.0371447 25.0058 0.0297158C32.8285 0.0965762 39.7151 2.4367 45.064 8.45414C53.9564 18.4163 53.0872 39.4105 37.1744 45.7623C36.6395 45.9628 36.1715 46.2972 35.3692 46.6983C40.8518 55.7245 46.2674 64.6838 51.9506 73.9105H39.4477C38.2442 72.5733 18.4535 39.5443 17.9186 37.8727C19.657 38.1402 21.3285 38.5414 23.0669 38.6751C34.4331 39.6111 42.3227 29.114 38.3111 18.4163C36.8401 14.5384 33.8314 12.4658 30.0204 11.396C26.9448 10.5268 15.0436 10.1925 11.3663 10.8611V73.8437C7.48837 74.2448 3.87791 74.1111 0.0668646 73.9774C4.07984e-06 49.3059 0 24.9018 0 0.364018ZM105.773 74.0442H96.3459C95.4099 72.6402 96.3459 71.1024 95.5436 69.5646C89.3924 74.2448 82.6395 76.05 75.0843 73.9105C69.8023 72.4396 65.4564 69.5646 62.1802 65.1518C55.2936 55.8582 55.561 42.3524 62.8488 33.7942C66.9942 28.9803 72.1424 26.0384 78.4942 25.2361C84.9128 24.4338 90.4622 26.4396 95.7442 30.4512C95.8111 28.8466 95.9448 27.5094 96.0116 25.9716H105.773V74.0442ZM81.3692 34.9978C73.1453 35.0646 66.8605 41.5501 66.9273 49.9745C66.9942 58.332 73.4797 65.0849 81.3023 64.8843C89.5262 64.7506 96.0116 58.0646 95.9448 49.9076C95.8779 41.6169 89.3924 34.9309 81.3692 34.9978ZM400.962 25.9047V73.9774C397.887 74.2448 394.878 74.1111 392.003 74.0442C390.933 72.6402 391.936 71.0355 391.067 69.4977C385.116 74.3117 378.43 75.8495 371.076 74.0442C365.86 72.707 361.515 69.9658 358.172 65.6867C350.884 56.3931 351.017 42.6867 358.439 33.7942C362.517 28.9134 367.733 25.9716 374.084 25.2361C380.436 24.4338 386.119 26.3059 391.134 30.3844C391.869 28.8466 391.067 27.3088 391.869 25.9047H400.962ZM377.093 34.9978C368.869 35.0646 362.517 41.4832 362.517 49.7071C362.584 58.3989 368.735 65.0181 376.759 64.9512C384.916 64.8844 391.669 58.1315 391.535 50.1082C391.401 41.6169 385.116 34.9978 377.093 34.9978ZM337.779 67.6925C331.026 75.5152 317.52 77.053 308.093 70.8349C297.797 64.082 294.119 50.3088 299.602 38.6082C304.483 28.0442 317.119 22.5617 328.151 26.0384C340.922 30.1169 345.602 43.9571 344.733 54.053H307.759C308.427 58.2652 310.701 60.9396 313.91 62.8117C320.128 66.489 325.878 65.1518 331.093 60.6721C333.299 63.0123 335.439 65.2855 337.779 67.6925ZM333.567 44.5588C332.43 38.5413 326.413 34.5297 319.459 34.9978C313.843 35.3989 308.294 39.9454 307.959 44.5588H333.567ZM200.849 54.1198H163.875C164.811 58.5995 167.285 61.4745 170.895 63.2797C176.913 66.3553 182.395 64.9512 187.343 60.6721L193.962 67.6925C189.015 74.8466 175.241 76.9861 165.747 71.771C155.049 65.8873 150.302 51.7128 155.116 40.146C159.997 28.4454 172.366 22.428 184.201 26.0384C194.898 29.3146 203.055 42.9541 200.849 54.1198ZM189.884 44.6256C188.68 38.8756 182.93 34.864 176.512 35.0646C170.561 35.2652 164.945 39.5442 164.209 44.6256H189.884ZM521.779 97.5791H510.613C511.683 94.8379 512.619 92.364 513.622 89.8902C515.695 84.6082 517.767 79.3262 519.974 74.178C520.709 72.4396 520.642 70.9687 519.907 69.2303C514.157 55.6576 508.474 42.085 502.791 28.5123C502.523 27.7768 501.988 27.1082 502.189 26.0384H512.352C516.965 37.271 521.645 48.7041 526.593 60.6721C531.674 48.7041 536.555 37.3378 541.436 25.9716H552C541.837 50.0413 531.808 73.8437 521.779 97.5791ZM414.735 25.9047H424.029C424.631 26.8408 424.43 27.7099 424.43 28.5791C424.43 37.2041 424.43 45.8291 424.497 54.521C424.497 57.7303 425.233 60.739 427.64 63.0791C430.849 66.2216 434.727 66.5559 438.805 65.4193C443.218 64.1489 445.625 61.0064 446.695 56.6605C447.163 54.7884 447.23 52.9164 447.23 51.0443V28.8466C447.23 27.9774 447.096 27.1082 447.564 26.1053H456.724V74.1111C453.648 74.3117 450.573 74.3117 447.43 74.1111C447.363 72.6402 447.23 71.3698 447.163 70.0326C446.227 70.0326 445.759 70.7012 445.224 71.1024C437.602 76.585 426.302 75.8495 419.483 69.4309C416.474 66.5559 415.07 62.9454 415.003 58.8669C414.802 50.175 414.869 41.4832 414.802 32.7245C414.735 30.4512 414.735 28.3117 414.735 25.9047ZM472.971 35.1983H466.151V26.0384C468.358 25.4367 470.497 26.0384 472.77 25.6373C473.305 21.1576 472.703 16.6111 473.105 11.864H482.733V25.771H496.372V35.1983H483.334C482.599 36.2012 482.799 37.0704 482.799 37.8059V55.6576C482.799 62.7448 487.078 65.8873 494.032 63.8814C494.767 63.6809 495.436 63.146 496.372 63.2797C496.439 63.7477 496.506 64.2826 496.506 64.7507V72.6402C487.346 78.5908 474.509 72.8407 473.305 62.2099C472.436 54.6547 473.105 46.9658 472.971 39.3437V35.1983ZM128.84 74.0442H119.012V25.9716H128.506C129.241 27.3088 128.506 28.7797 129.108 30.4512C131.916 27.3088 135.326 25.6373 139.337 25.1693C143.282 24.7012 147.093 25.303 150.904 27.3088C149.767 30.3175 148.631 33.1925 147.494 36.0007C146.224 36.2012 145.422 35.332 144.485 35.0646C137.599 32.9251 130.578 37.2041 129.174 44.4251C128.907 45.8291 128.84 47.3001 128.773 48.771C128.706 56.1925 128.773 63.5472 128.773 70.9687C128.84 71.9047 128.84 72.8408 128.84 74.0442Z" fill="#F6F3E4"/>
</svg>
