<svg width="115" height="115" viewBox="0 0 115 115" fill="none" xmlns="http://www.w3.org/2000/svg">
<rect width="115" height="115" rx="35" fill="white"/>
<path d="M34.8352 75.9492H38.1856C38.843 75.9492 39.4607 76.0375 40.0389 76.214C40.6171 76.3905 41.0857 76.6887 41.4448 77.1087C41.8039 77.5286 41.9835 78.1129 41.9835 78.8615C41.9835 79.3667 41.883 79.8262 41.6822 80.24C41.4874 80.6478 41.244 80.9795 40.9518 81.2351C40.6597 81.4908 40.3706 81.6429 40.0845 81.6916C40.3158 81.7099 40.5714 81.7829 40.8514 81.9107C41.1375 82.0385 41.4083 82.2211 41.6639 82.4585C41.9256 82.6958 42.1387 82.9941 42.303 83.3532C42.4734 83.7062 42.5586 84.1261 42.5586 84.613C42.5586 85.2703 42.4247 85.8546 42.1569 86.3658C41.8891 86.8771 41.4813 87.2788 40.9336 87.5709C40.3919 87.857 39.7042 88 38.8703 88H34.8352V75.9492ZM36.3872 86.6945H38.7151C39.2933 86.6945 39.7407 86.5941 40.0572 86.3932C40.3797 86.1863 40.6049 85.9185 40.7327 85.5898C40.8666 85.2612 40.9336 84.9112 40.9336 84.54C40.9336 83.9253 40.7327 83.4292 40.331 83.0519C39.9293 82.6745 39.3481 82.4859 38.5873 82.4859H36.3872V86.6945ZM36.3872 81.2078H38.4047C38.8673 81.2078 39.2477 81.1073 39.5459 80.9065C39.8441 80.6996 40.0663 80.4378 40.2124 80.1214C40.3584 79.7988 40.4315 79.4671 40.4315 79.1263C40.4315 78.4263 40.2245 77.9394 39.8107 77.6656C39.4029 77.3917 38.8551 77.2547 38.1674 77.2547H36.3872V81.2078ZM45.5024 84.5765C45.5085 85.0269 45.6059 85.4377 45.7945 85.809C45.9832 86.1802 46.2632 86.4754 46.6344 86.6945C47.0118 86.9136 47.4743 87.0232 48.0221 87.0232C48.4847 87.0232 48.8772 86.9562 49.1998 86.8223C49.5284 86.6823 49.7962 86.518 50.0032 86.3293C50.2101 86.1346 50.3592 85.9611 50.4505 85.809L51.2265 86.7675C51.0257 87.0597 50.7792 87.3153 50.487 87.5344C50.201 87.7535 49.851 87.9209 49.4372 88.0365C49.0233 88.1582 48.5181 88.2191 47.9217 88.2191C47.1183 88.2191 46.4214 88.0487 45.8311 87.7079C45.2468 87.3609 44.7964 86.8832 44.4799 86.2746C44.1634 85.6598 44.0052 84.9569 44.0052 84.1657C44.0052 83.4353 44.1543 82.778 44.4525 82.1937C44.7507 81.6034 45.1829 81.1378 45.7489 80.7969C46.321 80.4561 47.0087 80.2857 47.8121 80.2857C48.5486 80.2857 49.1876 80.4409 49.7293 80.7513C50.2771 81.0556 50.7 81.4877 50.9983 82.0477C51.3026 82.6076 51.4547 83.2771 51.4547 84.0561C51.4547 84.1048 51.4517 84.1931 51.4456 84.3209C51.4395 84.4426 51.4334 84.5278 51.4274 84.5765H45.5024ZM49.9393 83.3805C49.9332 83.131 49.8601 82.8571 49.7202 82.5589C49.5863 82.2607 49.3672 82.0051 49.0628 81.792C48.7585 81.579 48.3477 81.4725 47.8304 81.4725C47.2948 81.4725 46.8627 81.576 46.534 81.7829C46.2114 81.9898 45.9741 82.2424 45.8219 82.5406C45.6698 82.8328 45.5815 83.1127 45.5572 83.3805H49.9393ZM54.8611 88H53.2635V75.438H54.8611V88ZM58.1444 84.5765C58.1505 85.0269 58.2479 85.4377 58.4366 85.809C58.6252 86.1802 58.9052 86.4754 59.2765 86.6945C59.6538 86.9136 60.1164 87.0232 60.6641 87.0232C61.1267 87.0232 61.5192 86.9562 61.8418 86.8223C62.1705 86.6823 62.4383 86.518 62.6452 86.3293C62.8521 86.1346 63.0012 85.9611 63.0925 85.809L63.8685 86.7675C63.6677 87.0597 63.4212 87.3153 63.129 87.5344C62.843 87.7535 62.493 87.9209 62.0792 88.0365C61.6653 88.1582 61.1602 88.2191 60.5637 88.2191C59.7603 88.2191 59.0634 88.0487 58.4731 87.7079C57.8888 87.3609 57.4384 86.8832 57.1219 86.2746C56.8054 85.6598 56.6472 84.9569 56.6472 84.1657C56.6472 83.4353 56.7963 82.778 57.0945 82.1937C57.3928 81.6034 57.8249 81.1378 58.3909 80.7969C58.963 80.4561 59.6508 80.2857 60.4541 80.2857C61.1906 80.2857 61.8296 80.4409 62.3713 80.7513C62.9191 81.0556 63.3421 81.4877 63.6403 82.0477C63.9446 82.6076 64.0968 83.2771 64.0968 84.0561C64.0968 84.1048 64.0937 84.1931 64.0876 84.3209C64.0815 84.4426 64.0755 84.5278 64.0694 84.5765H58.1444ZM62.5813 83.3805C62.5752 83.131 62.5022 82.8571 62.3622 82.5589C62.2283 82.2607 62.0092 82.0051 61.7049 81.792C61.4006 81.579 60.9897 81.4725 60.4724 81.4725C59.9368 81.4725 59.5047 81.576 59.176 81.7829C58.8535 81.9898 58.6161 82.2424 58.4639 82.5406C58.3118 82.8328 58.2235 83.1127 58.1992 83.3805H62.5813ZM65.5586 80.5048H72.0952L67.6127 86.7949H71.9126V88H65.0474L69.5299 81.7007H65.5586V80.5048ZM79.5612 88V86.5393C79.5125 86.6915 79.3695 86.9014 79.1321 87.1692C78.9008 87.437 78.5813 87.6805 78.1735 87.8996C77.7718 88.1126 77.2971 88.2191 76.7493 88.2191C76.0555 88.2191 75.4256 88.0548 74.8596 87.7261C74.2996 87.3975 73.8523 86.938 73.5175 86.3476C73.1889 85.7511 73.0246 85.0543 73.0246 84.257C73.0246 83.4597 73.1889 82.7658 73.5175 82.1755C73.8523 81.579 74.2996 81.1165 74.8596 80.7878C75.4256 80.4531 76.0555 80.2857 76.7493 80.2857C77.291 80.2857 77.7597 80.3831 78.1553 80.5778C78.557 80.7726 78.8765 80.9978 79.1138 81.2534C79.3573 81.509 79.5003 81.7281 79.5429 81.9107V80.5048H81.1132V88H79.5612ZM74.5948 84.257C74.5948 84.7986 74.7135 85.2673 74.9509 85.6629C75.1882 86.0585 75.4956 86.3658 75.8729 86.5849C76.2564 86.798 76.6641 86.9045 77.0963 86.9045C77.5588 86.9045 77.9727 86.7949 78.3379 86.5758C78.703 86.3567 78.9921 86.0494 79.2051 85.6538C79.4182 85.2521 79.5247 84.7865 79.5247 84.257C79.5247 83.7275 79.4182 83.2649 79.2051 82.8693C78.9921 82.4676 78.703 82.1572 78.3379 81.9381C77.9727 81.7129 77.5588 81.6003 77.0963 81.6003C76.6641 81.6003 76.2564 81.7099 75.8729 81.929C75.4956 82.1481 75.1882 82.4554 74.9509 82.851C74.7135 83.2466 74.5948 83.7153 74.5948 84.257Z" fill="black"/>
<path d="M48.9274 39.4459L59.0879 49.6082C59.1694 49.6894 59.2341 49.786 59.2782 49.8923C59.3223 49.9986 59.345 50.1126 59.345 50.2277C59.345 50.3428 59.3223 50.4567 59.2782 50.563C59.2341 50.6693 59.1694 50.7659 59.0879 50.8472L50.1839 59.7529C50.0213 59.9161 49.8281 60.0457 49.6153 60.134C49.4026 60.2224 49.1745 60.2679 48.9441 60.2679C48.7137 60.2679 48.4855 60.2224 48.2728 60.134C48.06 60.0457 47.8668 59.9161 47.7042 59.7529L38.7827 50.8279C38.6197 50.6653 38.4904 50.4722 38.4022 50.2596C38.314 50.047 38.2686 49.8191 38.2686 49.5889C38.2686 49.3587 38.314 49.1308 38.4022 48.9182C38.4904 48.7056 38.6197 48.5125 38.7827 48.3499L47.6867 39.4459C47.768 39.3644 47.8645 39.2998 47.9708 39.2557C48.0771 39.2115 48.1911 39.1888 48.3062 39.1888C48.4213 39.1888 48.5352 39.2115 48.6415 39.2557C48.7478 39.2998 48.8462 39.3644 48.9274 39.4459Z" stroke="#5E3C9E" stroke-width="2.625" stroke-linecap="round" stroke-linejoin="round"/>
<path d="M57.7895 33.1163L65.4142 40.7411C65.4957 40.8223 65.5604 40.9189 65.6045 41.0252C65.6486 41.1315 65.6713 41.2455 65.6713 41.3606C65.6713 41.4757 65.6486 41.5896 65.6045 41.6959C65.5604 41.8022 65.4957 41.8988 65.4142 41.9801L58.437 48.9573L49.5732 40.0936L56.5505 33.1163C56.6318 33.0348 56.7283 32.9702 56.8346 32.9261C56.9409 32.882 57.0549 32.8593 57.17 32.8593C57.2851 32.8593 57.399 32.882 57.5054 32.9261C57.6117 32.9702 57.7082 33.0348 57.7895 33.1163Z" stroke="#5E3C9E" stroke-width="2.625" stroke-linecap="round" stroke-linejoin="round"/>
<path d="M71.2048 33.6552L64.7648 40.0952L58.4351 33.7637L70.2021 21.9967C70.3273 21.8716 70.4867 21.7863 70.6604 21.7517C70.834 21.7171 71.014 21.7346 71.1776 21.8022C71.3413 21.8698 71.4812 21.9844 71.5798 22.1314C71.6784 22.2785 71.7312 22.4514 71.7316 22.6285V32.3935C71.7281 32.866 71.5391 33.321 71.2066 33.6535" stroke="#5E3C9E" stroke-width="2.625" stroke-linecap="round" stroke-linejoin="round"/>
</svg>
