<svg width="28" height="28" viewBox="0 0 28 28" fill="none" xmlns="http://www.w3.org/2000/svg">
<path d="M23.9309 7.69842C24.5284 7.10105 24.8641 6.29079 24.8643 5.44589C24.8644 4.60098 24.5288 3.79064 23.9315 3.19312C23.3341 2.59561 22.5238 2.25987 21.6789 2.25977C20.834 2.25966 20.0237 2.5952 19.4262 3.19256L4.34336 18.2788C4.08096 18.5404 3.88691 18.8625 3.77829 19.2168L2.28538 24.1351C2.25617 24.2329 2.25396 24.3367 2.27899 24.4356C2.30402 24.5345 2.35536 24.6247 2.42754 24.6968C2.49973 24.7689 2.59009 24.8201 2.68902 24.8449C2.78795 24.8698 2.89176 24.8674 2.98945 24.8381L7.90894 23.3463C8.26286 23.2386 8.58496 23.0458 8.84695 22.7846L23.9309 7.69842Z" stroke="white" stroke-width="2.26027" stroke-linecap="round" stroke-linejoin="round"/>
</svg>
