<svg width="115" height="115" viewBox="0 0 115 115" fill="none" xmlns="http://www.w3.org/2000/svg">
<rect width="115" height="115" rx="35" fill="white"/>
<path d="M57.9999 61.0814C54.2584 61.0814 50.4678 60.3251 46.7352 58.8314C46.3304 58.6695 46.1088 58.2348 46.2132 57.8108L50.7004 39.6979C50.8219 39.2356 51.2906 38.9564 51.7551 39.0715C52.2196 39.1866 52.5051 39.6532 52.3943 40.1177L48.0925 57.485C54.6701 59.9395 61.3307 59.9395 67.9078 57.485L63.6059 40.1177C63.5463 39.8919 63.5804 39.6511 63.6997 39.4508C63.819 39.2505 64.0129 39.1056 64.2409 39.0502C64.4667 38.9948 64.7054 39.031 64.9057 39.1525C65.1038 39.2739 65.2466 39.4699 65.2999 39.6979L69.7871 57.8108C69.8915 58.2348 69.6699 58.6695 69.2651 58.8314C65.5321 60.3251 61.7412 61.0814 57.9999 61.0814Z" fill="#5E3C9E"/>
<path d="M58.0004 46.4098C55.5778 46.4055 53.6154 44.4432 53.6133 42.0206C53.6133 41.9908 53.6133 41.9524 53.6154 41.9055C53.6431 41.424 54.0565 41.0575 54.538 41.0852C55.0195 41.1129 55.386 41.5241 55.3583 42.0057V42.0206C55.3583 43.4801 56.5408 44.6648 58.0004 44.6648C59.4599 44.6648 60.6446 43.4801 60.6446 42.0206V42.0057C60.6147 41.5241 60.9834 41.1129 61.4649 41.0852C61.9464 41.0575 62.3576 41.424 62.3853 41.9055C62.3875 41.9524 62.3875 41.9929 62.3875 42.0206H62.3896C62.3875 44.4432 60.423 46.4077 58.0004 46.4098Z" fill="#5E3C9E"/>
<path d="M51.8825 69.4194C50.668 69.4172 49.5111 68.8973 48.7036 67.9875C47.896 67.0777 47.5168 65.8675 47.6616 64.6594L48.3754 58.7041C48.4031 58.4719 48.5182 58.2609 48.7014 58.1161C48.8847 57.9712 49.1169 57.9051 49.347 57.9328C49.5793 57.9627 49.7902 58.0798 49.9329 58.2652C50.0757 58.4485 50.1396 58.6807 50.1098 58.9129L49.396 64.8682H49.3939C49.2937 66.2063 50.2632 67.3888 51.597 67.5486C52.9287 67.7106 54.1517 66.7922 54.3712 65.467L55.0253 60.0252L55.0274 60.0273C55.0828 59.5479 55.5175 59.207 55.9968 59.2645C56.4762 59.3199 56.8171 59.7546 56.7596 60.234L56.1055 65.6758C55.8477 67.8107 54.0345 69.4172 51.8825 69.4194Z" fill="#5E3C9E"/>
<path d="M64.1169 69.4193C61.9649 69.4172 60.1517 67.8107 59.8938 65.6736L59.2397 60.2318C59.1822 59.7545 59.5231 59.3198 60.0025 59.2623C60.4819 59.2049 60.9166 59.5457 60.9741 60.0251L61.6282 65.4669V65.4648C61.8476 66.79 63.0706 67.7084 64.4044 67.5464C65.7361 67.3866 66.7077 66.2041 66.6054 64.866L65.8917 58.9107C65.8618 58.6785 65.9236 58.4463 66.0685 58.263C66.2113 58.0776 66.4201 57.9605 66.6523 57.9306C66.8824 57.9029 67.1168 57.969 67.2979 58.1139C67.4811 58.2587 67.5983 58.4697 67.6239 58.7019L68.3377 64.6594V64.6572C68.4826 65.8653 68.1033 67.0777 67.2979 67.9875C66.4904 68.8973 65.3334 69.4172 64.1169 69.4193Z" fill="#5E3C9E"/>
<path d="M57.9997 43.5571C52.6176 43.5571 48.2388 39.1786 48.2388 33.7962C48.2388 28.4162 52.6173 24.0353 57.9997 24.0353C63.3821 24.0353 67.7606 28.4138 67.7606 33.7962C67.7606 39.1783 63.3821 43.5571 57.9997 43.5571ZM57.9997 25.7829C53.5806 25.7829 49.9842 29.3795 49.9842 33.7984C49.9842 38.2153 53.5808 41.8116 57.9997 41.8116C62.4185 41.8116 66.0151 38.2172 66.0151 33.7962C66.0151 29.3752 62.4185 25.7829 57.9997 25.7829Z" fill="#5E3C9E"/>
<path d="M64.7351 33.7536C62.7024 33.7536 60.7358 33.368 59.1998 32.6648C58.3433 32.2728 57.6423 31.7912 57.1224 31.2522C56.7133 31.7956 56.2041 32.2558 55.6245 32.6116C54.4484 33.3488 52.9462 33.7537 51.3909 33.7537C50.5642 33.7558 49.7417 33.6386 48.9491 33.4085C48.4995 33.2615 48.2481 32.7842 48.3823 32.3304C48.5144 31.8765 48.9874 31.6123 49.4434 31.7338C50.0762 31.917 50.7324 32.0107 51.3908 32.0065C53.7942 32.0065 55.8865 30.7877 56.1571 29.2324V29.2345C56.2275 28.8254 56.5748 28.5228 56.9881 28.5101C57.4036 28.4973 57.7701 28.7764 57.8659 29.1791C58.1898 30.5385 60.9085 32.0065 64.7354 32.0065C65.3916 32.0065 66.0479 31.9597 66.6978 31.868C67.1729 31.8041 67.6097 32.1344 67.6779 32.6095C67.7461 33.0825 67.4201 33.5215 66.9471 33.596C66.2141 33.7004 65.4744 33.7536 64.7351 33.7536Z" fill="#5E3C9E"/>
<path d="M54.7142 36.2126C54.2327 36.2126 53.8428 35.8227 53.8428 35.3411V34.915C53.8428 34.4334 54.2327 34.0414 54.7142 34.0414C55.1958 34.0414 55.5878 34.4334 55.5878 34.915V35.3411C55.5878 35.5712 55.4962 35.795 55.3322 35.9569C55.1681 36.1209 54.9465 36.2126 54.7142 36.2126Z" fill="#5E3C9E"/>
<path d="M61.2857 36.2126C60.8042 36.2126 60.4121 35.8227 60.4121 35.3411V34.915C60.4121 34.4334 60.8042 34.0414 61.2857 34.0414C61.7672 34.0414 62.1572 34.4334 62.1572 34.915V35.3411C62.1572 35.5712 62.0656 35.795 61.9036 35.9569C61.7396 36.1209 61.5179 36.2126 61.2857 36.2126Z" fill="#5E3C9E"/>
<path d="M57.9996 40.1497C56.5486 40.1518 55.2383 39.2825 54.6715 37.9444C54.4904 37.5034 54.6971 36.9963 55.1381 36.8088C55.5792 36.6234 56.0884 36.8258 56.2802 37.2648C56.5721 37.9551 57.2496 38.4047 58.0018 38.4047C58.7518 38.4047 59.4293 37.9551 59.7233 37.2648C59.9279 36.8472 60.42 36.6639 60.8483 36.845C61.2745 37.0261 61.4854 37.5098 61.3277 37.9444C60.7609 39.2825 59.4507 40.1518 57.9996 40.1497Z" fill="#5E3C9E"/>
<path d="M45.6848 52.1753C43.6969 52.1753 41.9518 50.8543 41.4171 48.9409C40.8801 47.0276 41.6834 44.9906 43.3816 43.9594L51.0648 39.2953C51.4761 39.0503 52.0088 39.1824 52.2559 39.5915C52.5052 40.0027 52.3774 40.5354 51.9704 40.7868L44.2871 45.4509C43.0194 46.2201 42.6167 47.8713 43.3859 49.1391C44.1551 50.4047 45.8063 50.8074 47.0719 50.0382L48.6337 49.09C49.0471 48.8386 49.584 48.9707 49.8333 49.3819C50.0847 49.7932 49.9526 50.3301 49.5414 50.5815L47.9796 51.5297C47.2871 51.9515 46.4923 52.1732 45.6848 52.1753Z" fill="#5E3C9E"/>
<path d="M70.3154 52.1754C69.5078 52.1732 68.7131 51.9516 68.0206 51.5298L66.4588 50.5816C66.0476 50.3302 65.9155 49.7932 66.1669 49.382C66.4162 48.9708 66.9531 48.8387 67.3665 49.0901L68.9283 50.0383C69.5355 50.409 70.2663 50.5219 70.9589 50.3536C71.6492 50.1853 72.2458 49.7485 72.6165 49.1391C72.9852 48.5319 73.0981 47.8011 72.9298 47.1086C72.7593 46.4182 72.3225 45.8216 71.7131 45.453L64.032 40.7868C63.6251 40.5354 63.4972 40.0027 63.7465 39.5915C63.9958 39.1824 64.5264 39.0503 64.9397 39.2953L72.6186 43.9594C74.3168 44.9906 75.12 47.0276 74.5831 48.9409C74.0462 50.8543 72.3011 52.1775 70.3154 52.1754Z" fill="#5E3C9E"/>
<path d="M70.0427 34.6716C69.0668 34.6716 67.2004 34.4948 66.1499 33.2441V33.2462C66.0008 33.0693 65.9283 32.8392 65.9496 32.6091C65.9688 32.379 66.0796 32.1638 66.2565 32.0168C66.6251 31.7057 67.1769 31.7526 67.4859 32.1233C68.1592 32.9266 69.9212 32.9607 70.4859 32.9095C70.5114 32.9095 70.5413 32.9053 70.5668 32.9053C72.2075 32.9053 73.1173 31.8016 73.5817 30.911C72.314 30.7235 71.5746 29.8968 71.2699 29.4685C70.9226 28.9785 70.5242 28.6311 70.0853 28.4288C68.2465 27.5914 66.0263 28.9338 65.598 29.2129C65.4041 29.3407 65.1676 29.3855 64.9418 29.3364C64.7138 29.2896 64.5135 29.1532 64.3878 28.9593C64.26 28.7654 64.2174 28.5289 64.2664 28.301C64.3132 28.073 64.4517 27.8748 64.6456 27.7491C65.434 27.2356 68.206 25.6525 70.8098 26.8414C71.5321 27.1717 72.1649 27.715 72.6912 28.4586C73.1472 29.0999 73.8119 29.3322 74.6706 29.1383C74.9604 29.0722 75.265 29.1617 75.476 29.3705C75.6869 29.5815 75.7764 29.884 75.7125 30.1738C75.5165 30.9579 75.1884 31.7015 74.7388 32.3727C73.7395 33.8535 72.3119 34.6397 70.6053 34.6525C70.5051 34.6589 70.3069 34.6716 70.0427 34.6716Z" fill="#5E3C9E"/>
<path d="M45.396 27.2983C46.5519 26.7707 47.7652 26.8492 48.8149 27.1411C49.8647 27.4331 50.7078 27.9274 51.0796 28.1685H51.0806C51.2536 28.2805 51.3013 28.5114 51.1899 28.6812L51.188 28.6831C51.0899 28.8347 50.9007 28.8905 50.7407 28.8276L50.6743 28.7935C50.3541 28.5857 49.6346 28.1582 48.7485 27.8901C47.867 27.6235 46.7562 27.4957 45.7065 27.9761C45.1722 28.2211 44.7105 28.6393 44.3237 29.1792L44.3228 29.1802C44.0536 29.5577 43.4166 30.2593 42.3403 30.4185L41.647 30.521L41.9702 31.1431C42.4703 32.1064 43.5096 33.4077 45.4331 33.4077H45.4556L45.4712 33.4097C45.7911 33.4388 46.4151 33.4414 47.0562 33.3306C47.6727 33.2239 48.435 32.9911 48.8931 32.4487C49.0245 32.2939 49.2572 32.2727 49.4165 32.4048V32.4058C49.5715 32.5364 49.5925 32.7696 49.4604 32.9282C49.0236 33.4463 48.4014 33.762 47.7407 33.9458C47.0808 34.1294 46.4195 34.1714 45.9575 34.1714C45.709 34.1714 45.5246 34.1593 45.437 34.1519L45.3979 34.1499C43.8649 34.1383 42.5872 33.4417 41.6753 32.0903L41.645 32.0454C41.2456 31.4375 40.9504 30.7679 40.7749 30.063C40.7496 29.9436 40.7861 29.8169 40.8755 29.7261C40.9427 29.6596 41.0335 29.6209 41.1274 29.6177L41.2212 29.6265C41.7167 29.7362 42.1934 29.7325 42.6304 29.5825C43.0713 29.4312 43.4336 29.1438 43.7153 28.7495L43.7163 28.7476C44.1389 28.1522 44.6267 27.7102 45.1636 27.4155L45.396 27.2983Z" fill="#5E3C9E" stroke="#5E3C9E"/>
<path d="M17.2445 75.9492H20.595C21.2523 75.9492 21.8701 76.0375 22.4483 76.214C23.0265 76.3905 23.4951 76.6887 23.8542 77.1087C24.2133 77.5286 24.3928 78.1129 24.3928 78.8615C24.3928 79.3667 24.2924 79.8262 24.0916 80.24C23.8968 80.6478 23.6533 80.9795 23.3612 81.2351C23.0691 81.4908 22.78 81.6429 22.4939 81.6916C22.7252 81.7099 22.9808 81.7829 23.2608 81.9107C23.5468 82.0385 23.8177 82.2211 24.0733 82.4585C24.335 82.6958 24.548 82.9941 24.7124 83.3532C24.8828 83.7062 24.968 84.1261 24.968 84.613C24.968 85.2703 24.8341 85.8546 24.5663 86.3658C24.2985 86.8771 23.8907 87.2788 23.343 87.5709C22.8013 87.857 22.1135 88 21.2797 88H17.2445V75.9492ZM18.7965 86.6945H21.1245C21.7027 86.6945 22.15 86.5941 22.4665 86.3932C22.7891 86.1863 23.0143 85.9185 23.1421 85.5898C23.276 85.2612 23.343 84.9112 23.343 84.54C23.343 83.9253 23.1421 83.4292 22.7404 83.0519C22.3387 82.6745 21.7575 82.4859 20.9967 82.4859H18.7965V86.6945ZM18.7965 81.2078H20.8141C21.2767 81.2078 21.6571 81.1073 21.9553 80.9065C22.2535 80.6996 22.4757 80.4378 22.6217 80.1214C22.7678 79.7988 22.8408 79.4671 22.8408 79.1263C22.8408 78.4263 22.6339 77.9394 22.22 77.6656C21.8123 77.3917 21.2645 77.2547 20.5768 77.2547H18.7965V81.2078ZM28.4778 88H26.8984V80.5048H28.4778V81.8012H28.4321C28.4626 81.6429 28.5752 81.4451 28.7699 81.2078C28.9647 80.9704 29.2325 80.7574 29.5733 80.5687C29.9141 80.38 30.3219 80.2857 30.7966 80.2857C31.1436 80.2857 31.4479 80.3344 31.7096 80.4318C31.9774 80.5231 32.166 80.6143 32.2756 80.7056L31.6274 82.0203C31.5422 81.9351 31.3931 81.8499 31.1801 81.7646C30.9671 81.6734 30.7023 81.6277 30.3858 81.6277C29.9841 81.6277 29.6403 81.7525 29.3542 82.002C29.0682 82.2515 28.849 82.5528 28.6969 82.9058C28.5508 83.2527 28.4778 83.5753 28.4778 83.8735V88ZM33.4735 88V80.5048H35.0621V88H33.4735ZM34.2861 77.9394C34 77.9394 33.7535 77.839 33.5466 77.6382C33.3457 77.4312 33.2453 77.1847 33.2453 76.8987C33.2453 76.6126 33.3457 76.3662 33.5466 76.1592C33.7535 75.9523 34 75.8488 34.2861 75.8488C34.4747 75.8488 34.6482 75.8975 34.8064 75.9949C34.9708 76.0923 35.1016 76.2201 35.199 76.3783C35.2964 76.5305 35.3451 76.7039 35.3451 76.8987C35.3451 77.1847 35.2416 77.4312 35.0347 77.6382C34.8277 77.839 34.5782 77.9394 34.2861 77.9394ZM41.6807 80.2857C42.1737 80.2857 42.6515 80.3892 43.114 80.5961C43.5826 80.803 43.9661 81.1317 44.2643 81.5821C44.5686 82.0264 44.7208 82.6076 44.7208 83.3258V88H43.114V83.6362C43.114 82.8936 42.9406 82.355 42.5936 82.0203C42.2467 81.6794 41.7994 81.509 41.2516 81.509C40.8925 81.509 40.5456 81.6125 40.2109 81.8194C39.8822 82.0203 39.6114 82.3002 39.3984 82.6593C39.1853 83.0123 39.0788 83.414 39.0788 83.8644V88H37.4903V80.5048H39.0788V81.8377C39.1336 81.6307 39.2827 81.4056 39.5262 81.1621C39.7696 80.9187 40.08 80.7117 40.4574 80.5413C40.8347 80.3709 41.2425 80.2857 41.6807 80.2857ZM53.0607 91.7978V86.5393C53.0303 86.6975 52.8934 86.9106 52.6499 87.1784C52.4065 87.4462 52.0748 87.6866 51.6548 87.8996C51.2349 88.1126 50.7388 88.2191 50.1667 88.2191C49.4729 88.2191 48.8521 88.0548 48.3043 87.7261C47.7566 87.3975 47.3244 86.938 47.008 86.3476C46.6915 85.7511 46.5332 85.0543 46.5332 84.257C46.5332 83.4597 46.6854 82.7658 46.9897 82.1755C47.3001 81.579 47.7261 81.1165 48.2678 80.7878C48.8095 80.4531 49.4242 80.2857 50.1119 80.2857C50.6658 80.2857 51.1527 80.3831 51.5726 80.5778C51.9926 80.7665 52.3273 80.9887 52.5769 81.2443C52.8325 81.4999 52.9847 81.722 53.0333 81.9107V80.5048H54.6401V91.7978H53.0607ZM50.5045 86.9045C50.9792 86.9045 51.4053 86.7949 51.7826 86.5758C52.1661 86.3567 52.4704 86.0494 52.6956 85.6538C52.9207 85.2521 53.0333 84.7865 53.0333 84.257C53.0333 83.7275 52.9207 83.2649 52.6956 82.8693C52.4704 82.4676 52.1661 82.1572 51.7826 81.9381C51.4053 81.7129 50.9792 81.6003 50.5045 81.6003C50.0785 81.6003 49.6829 81.7099 49.3177 81.929C48.9525 82.1481 48.6573 82.4554 48.4321 82.851C48.213 83.2466 48.1035 83.7153 48.1035 84.257C48.1035 84.7986 48.213 85.2673 48.4321 85.6629C48.6573 86.0585 48.9525 86.3658 49.3177 86.5849C49.6829 86.798 50.0785 86.9045 50.5045 86.9045ZM58.0752 84.2843C58.0752 85.0695 58.2425 85.6964 58.5773 86.165C58.9181 86.6276 59.4385 86.8588 60.1384 86.8588C60.8444 86.8588 61.3648 86.6276 61.6995 86.165C62.0343 85.6964 62.2016 85.0695 62.2016 84.2843V80.5048H63.7719V84.5035C63.7719 85.2338 63.6289 85.8789 63.3428 86.4389C63.0628 86.9988 62.652 87.437 62.1104 87.7535C61.5748 88.0639 60.9174 88.2191 60.1384 88.2191C59.3655 88.2191 58.7081 88.0639 58.1665 87.7535C57.6309 87.437 57.2201 86.9988 56.934 86.4389C56.654 85.8789 56.5141 85.2338 56.5141 84.5035V80.5048H58.0752V84.2843ZM66.9255 84.5765C66.9316 85.0269 67.029 85.4377 67.2177 85.809C67.4063 86.1802 67.6863 86.4754 68.0576 86.6945C68.4349 86.9136 68.8975 87.0232 69.4452 87.0232C69.9078 87.0232 70.3003 86.9562 70.6229 86.8223C70.9516 86.6823 71.2194 86.518 71.4263 86.3293C71.6332 86.1346 71.7823 85.9611 71.8736 85.809L72.6496 86.7675C72.4488 87.0597 72.2023 87.3153 71.9102 87.5344C71.6241 87.7535 71.2741 87.9209 70.8603 88.0365C70.4464 88.1582 69.9413 88.2191 69.3448 88.2191C68.5414 88.2191 67.8445 88.0487 67.2542 87.7079C66.6699 87.3609 66.2195 86.8832 65.903 86.2746C65.5865 85.6598 65.4283 84.9569 65.4283 84.1657C65.4283 83.4353 65.5774 82.778 65.8756 82.1937C66.1739 81.6034 66.606 81.1378 67.172 80.7969C67.7441 80.4561 68.4319 80.2857 69.2352 80.2857C69.9717 80.2857 70.6107 80.4409 71.1524 80.7513C71.7002 81.0556 72.1232 81.4877 72.4214 82.0477C72.7257 82.6076 72.8779 83.2771 72.8779 84.0561C72.8779 84.1048 72.8748 84.1931 72.8687 84.3209C72.8626 84.4426 72.8566 84.5278 72.8505 84.5765H66.9255ZM71.3624 83.3805C71.3563 83.131 71.2833 82.8571 71.1433 82.5589C71.0094 82.2607 70.7903 82.0051 70.486 81.792C70.1817 81.579 69.7708 81.4725 69.2535 81.4725C68.7179 81.4725 68.2858 81.576 67.9571 81.7829C67.6346 81.9898 67.3972 82.2424 67.245 82.5406C67.0929 82.8328 67.0046 83.1127 66.9803 83.3805H71.3624ZM77.9367 88.2191C77.2489 88.2191 76.6312 88.0548 76.0834 87.7261C75.5417 87.3975 75.1127 86.938 74.7962 86.3476C74.4858 85.7511 74.3306 85.0543 74.3306 84.257C74.3306 83.4597 74.4858 82.7658 74.7962 82.1755C75.1127 81.579 75.5417 81.1165 76.0834 80.7878C76.6312 80.4531 77.2489 80.2857 77.9367 80.2857C78.4905 80.2857 78.9774 80.3831 79.3974 80.5778C79.8173 80.7665 80.1521 80.9887 80.4016 81.2443C80.6511 81.4999 80.7942 81.722 80.8307 81.9107V75.438H82.4283V88H80.8581V86.5393C80.7911 86.7462 80.6237 86.9806 80.356 87.2423C80.0942 87.504 79.7565 87.7322 79.3426 87.927C78.9287 88.1217 78.4601 88.2191 77.9367 88.2191ZM78.3018 86.9045C78.7644 86.9045 79.1874 86.7949 79.5708 86.5758C79.9543 86.3567 80.2586 86.0494 80.4838 85.6538C80.715 85.2521 80.8307 84.7865 80.8307 84.257C80.8307 83.7275 80.715 83.2649 80.4838 82.8693C80.2586 82.4676 79.9543 82.1572 79.5708 81.9381C79.1874 81.7129 78.7644 81.6003 78.3018 81.6003C77.8758 81.6003 77.4802 81.7099 77.115 81.929C76.7499 82.1481 76.4547 82.4554 76.2295 82.851C76.0104 83.2466 75.9008 83.7153 75.9008 84.257C75.9008 84.7986 76.0104 85.2673 76.2295 85.6629C76.4547 86.0585 76.7499 86.3658 77.115 86.5849C77.4802 86.798 77.8758 86.9045 78.3018 86.9045ZM87.6761 88.2191C86.9032 88.2191 86.2154 88.0456 85.6129 87.6987C85.0165 87.3518 84.5478 86.8832 84.207 86.2928C83.8662 85.6964 83.6957 85.0238 83.6957 84.2752C83.6957 83.5266 83.8662 82.851 84.207 82.2485C84.5478 81.646 85.0165 81.1682 85.6129 80.8152C86.2154 80.4622 86.9032 80.2857 87.6761 80.2857C88.443 80.2857 89.1216 80.4622 89.712 80.8152C90.3084 81.1682 90.774 81.646 91.1088 82.2485C91.4435 82.851 91.6109 83.5266 91.6109 84.2752C91.6109 85.0238 91.4435 85.6964 91.1088 86.2928C90.774 86.8832 90.3084 87.3518 89.712 87.6987C89.1216 88.0456 88.443 88.2191 87.6761 88.2191ZM87.6761 86.8588C88.163 86.8588 88.586 86.7462 88.9451 86.521C89.3103 86.2959 89.5933 85.9885 89.7941 85.599C89.995 85.2034 90.0954 84.7591 90.0954 84.2661C90.0954 83.7731 89.995 83.3288 89.7941 82.9332C89.5933 82.5376 89.3103 82.2242 88.9451 81.9929C88.586 81.7616 88.163 81.646 87.6761 81.646C87.1832 81.646 86.7541 81.7616 86.3889 81.9929C86.0237 82.2242 85.7377 82.5376 85.5307 82.9332C85.3299 83.3288 85.2295 83.7731 85.2295 84.2661C85.2295 84.7591 85.3299 85.2034 85.5307 85.599C85.7377 85.9885 86.0237 86.2959 86.3889 86.521C86.7541 86.7462 87.1832 86.8588 87.6761 86.8588ZM96.1838 80.2857C96.5734 80.2857 96.9355 80.3253 97.2702 80.4044C97.6111 80.4835 97.9032 80.5778 98.1466 80.6874C98.3962 80.7969 98.5727 80.8943 98.6761 80.9795L98.0462 81.9838C97.9245 81.8742 97.7054 81.7525 97.3889 81.6186C97.0724 81.4786 96.7194 81.4086 96.3299 81.4086C95.9039 81.4086 95.5417 81.4938 95.2435 81.6642C94.9453 81.8286 94.7962 82.069 94.7962 82.3854C94.7962 82.7019 94.9483 82.9545 95.2526 83.1432C95.563 83.3258 95.9769 83.4779 96.4942 83.5996C96.9081 83.697 97.2946 83.8279 97.6537 83.9922C98.0188 84.1565 98.314 84.3848 98.5392 84.6769C98.7644 84.963 98.877 85.3464 98.877 85.8272C98.877 86.2654 98.7857 86.6397 98.6031 86.9501C98.4205 87.2544 98.174 87.5009 97.8636 87.6896C97.5532 87.8722 97.2063 88.0061 96.8229 88.0913C96.4395 88.1765 96.0499 88.2191 95.6543 88.2191C95.1918 88.2191 94.7749 88.1704 94.4036 88.073C94.0323 87.9817 93.7189 87.8722 93.4633 87.7444C93.2137 87.6105 93.0312 87.4948 92.9155 87.3975L93.5454 86.2654C93.7037 86.4176 93.9624 86.5789 94.3214 86.7493C94.6866 86.9197 95.1005 87.0049 95.563 87.0049C96.0743 87.0049 96.4881 86.8984 96.8046 86.6854C97.1211 86.4663 97.2794 86.1833 97.2794 85.8363C97.2794 85.5746 97.2033 85.3647 97.0511 85.2064C96.899 85.0482 96.6951 84.9204 96.4395 84.823C96.1838 84.7256 95.9039 84.6404 95.5996 84.5674C95.3074 84.5004 95.0214 84.4122 94.7414 84.3026C94.4675 84.1931 94.2149 84.0531 93.9837 83.8827C93.7585 83.7062 93.5789 83.4931 93.445 83.2436C93.3111 82.988 93.2442 82.6898 93.2442 82.3489C93.2442 81.9168 93.3811 81.5486 93.655 81.2443C93.9289 80.9339 94.288 80.6965 94.7323 80.5322C95.1766 80.3679 95.6604 80.2857 96.1838 80.2857Z" fill="black"/>
</svg>
