<svg width="115" height="115" viewBox="0 0 115 115" fill="none" xmlns="http://www.w3.org/2000/svg">
<rect width="115" height="115" rx="35" fill="white"/>
<path d="M45.7148 86.6762C46.4634 86.6762 47.1116 86.5728 47.6594 86.3658C48.2132 86.1589 48.6058 85.9581 48.837 85.7633L49.5217 87.1053C49.2479 87.3488 48.7701 87.5953 48.0884 87.8448C47.4129 88.0943 46.6004 88.2191 45.6509 88.2191C44.7623 88.2191 43.9376 88.0609 43.1768 87.7444C42.4161 87.4279 41.7496 86.9866 41.1775 86.4206C40.6115 85.8546 40.1672 85.1942 39.8446 84.4395C39.5281 83.6849 39.3699 82.8693 39.3699 81.9929C39.3699 81.1165 39.5281 80.2979 39.8446 79.5371C40.1611 78.7763 40.6024 78.1129 41.1684 77.5469C41.7405 76.9748 42.4069 76.5305 43.1677 76.214C43.9346 75.8914 44.7623 75.7301 45.6509 75.7301C46.6004 75.7301 47.4129 75.8549 48.0884 76.1044C48.7701 76.354 49.2479 76.6005 49.5217 76.8439L48.837 78.1859C48.6058 77.9851 48.2132 77.7842 47.6594 77.5834C47.1116 77.3765 46.4634 77.273 45.7148 77.273C45.0331 77.273 44.4093 77.3886 43.8433 77.6199C43.2773 77.8512 42.7843 78.1798 42.3643 78.6059C41.9505 79.0258 41.6279 79.5219 41.3966 80.094C41.1714 80.6661 41.0588 81.2899 41.0588 81.9655C41.0588 82.6472 41.1714 83.2771 41.3966 83.8553C41.6279 84.4274 41.9505 84.9264 42.3643 85.3525C42.7843 85.7724 43.2773 86.098 43.8433 86.3293C44.4093 86.5606 45.0331 86.6762 45.7148 86.6762ZM57.3791 88V86.5393C57.3304 86.6915 57.1874 86.9014 56.9501 87.1692C56.7188 87.437 56.3992 87.6805 55.9915 87.8996C55.5898 88.1126 55.1151 88.2191 54.5673 88.2191C53.8735 88.2191 53.2435 88.0548 52.6775 87.7261C52.1176 87.3975 51.6702 86.938 51.3355 86.3476C51.0068 85.7511 50.8425 85.0543 50.8425 84.257C50.8425 83.4597 51.0068 82.7658 51.3355 82.1755C51.6702 81.579 52.1176 81.1165 52.6775 80.7878C53.2435 80.4531 53.8735 80.2857 54.5673 80.2857C55.109 80.2857 55.5776 80.3831 55.9732 80.5778C56.3749 80.7726 56.6944 80.9978 56.9318 81.2534C57.1752 81.509 57.3183 81.7281 57.3609 81.9107V80.5048H58.9311V88H57.3791ZM52.4128 84.257C52.4128 84.7986 52.5314 85.2673 52.7688 85.6629C53.0062 86.0585 53.3135 86.3658 53.6909 86.5849C54.0743 86.798 54.4821 86.9045 54.9142 86.9045C55.3768 86.9045 55.7906 86.7949 56.1558 86.5758C56.521 86.3567 56.8101 86.0494 57.0231 85.6538C57.2361 85.2521 57.3426 84.7865 57.3426 84.257C57.3426 83.7275 57.2361 83.2649 57.0231 82.8693C56.8101 82.4676 56.521 82.1572 56.1558 81.9381C55.7906 81.7129 55.3768 81.6003 54.9142 81.6003C54.4821 81.6003 54.0743 81.7099 53.6909 81.929C53.3135 82.1481 53.0062 82.4554 52.7688 82.851C52.5314 83.2466 52.4128 83.7153 52.4128 84.257ZM63.8655 80.2857C64.2551 80.2857 64.6172 80.3253 64.9519 80.4044C65.2928 80.4835 65.5849 80.5778 65.8284 80.6874C66.0779 80.7969 66.2544 80.8943 66.3579 80.9795L65.7279 81.9838C65.6062 81.8742 65.3871 81.7525 65.0706 81.6186C64.7541 81.4786 64.4011 81.4086 64.0116 81.4086C63.5856 81.4086 63.2234 81.4938 62.9252 81.6642C62.627 81.8286 62.4779 82.069 62.4779 82.3854C62.4779 82.7019 62.63 82.9545 62.9343 83.1432C63.2447 83.3258 63.6586 83.4779 64.1759 83.5996C64.5898 83.697 64.9763 83.8279 65.3354 83.9922C65.7005 84.1565 65.9957 84.3848 66.2209 84.6769C66.4461 84.963 66.5587 85.3464 66.5587 85.8272C66.5587 86.2654 66.4674 86.6397 66.2848 86.9501C66.1022 87.2544 65.8557 87.5009 65.5453 87.6896C65.2349 87.8722 64.888 88.0061 64.5046 88.0913C64.1212 88.1765 63.7316 88.2191 63.336 88.2191C62.8735 88.2191 62.4566 88.1704 62.0853 88.073C61.7141 87.9817 61.4006 87.8722 61.145 87.7444C60.8955 87.6105 60.7129 87.4948 60.5972 87.3975L61.2272 86.2654C61.3854 86.4176 61.6441 86.5789 62.0032 86.7493C62.3683 86.9197 62.7822 87.0049 63.2447 87.0049C63.756 87.0049 64.1699 86.8984 64.4863 86.6854C64.8028 86.4663 64.9611 86.1833 64.9611 85.8363C64.9611 85.5746 64.885 85.3647 64.7328 85.2064C64.5807 85.0482 64.3768 84.9204 64.1212 84.823C63.8655 84.7256 63.5856 84.6404 63.2813 84.5674C62.9891 84.5004 62.7031 84.4122 62.4231 84.3026C62.1492 84.1931 61.8966 84.0531 61.6654 83.8827C61.4402 83.7062 61.2606 83.4931 61.1267 83.2436C60.9928 82.988 60.9259 82.6898 60.9259 82.3489C60.9259 81.9168 61.0628 81.5486 61.3367 81.2443C61.6106 80.9339 61.9697 80.6965 62.414 80.5322C62.8583 80.3679 63.3421 80.2857 63.8655 80.2857ZM74.4254 88V86.5393C74.3767 86.6915 74.2336 86.9014 73.9963 87.1692C73.765 87.437 73.4455 87.6805 73.0377 87.8996C72.636 88.1126 72.1613 88.2191 71.6135 88.2191C70.9197 88.2191 70.2898 88.0548 69.7237 87.7261C69.1638 87.3975 68.7165 86.938 68.3817 86.3476C68.0531 85.7511 67.8887 85.0543 67.8887 84.257C67.8887 83.4597 68.0531 82.7658 68.3817 82.1755C68.7165 81.579 69.1638 81.1165 69.7237 80.7878C70.2898 80.4531 70.9197 80.2857 71.6135 80.2857C72.1552 80.2857 72.6238 80.3831 73.0194 80.5778C73.4211 80.7726 73.7407 80.9978 73.978 81.2534C74.2215 81.509 74.3645 81.7281 74.4071 81.9107V80.5048H75.9774V88H74.4254ZM69.459 84.257C69.459 84.7986 69.5777 85.2673 69.815 85.6629C70.0524 86.0585 70.3598 86.3658 70.7371 86.5849C71.1205 86.798 71.5283 86.9045 71.9604 86.9045C72.423 86.9045 72.8369 86.7949 73.202 86.5758C73.5672 86.3567 73.8563 86.0494 74.0693 85.6538C74.2823 85.2521 74.3888 84.7865 74.3888 84.257C74.3888 83.7275 74.2823 83.2649 74.0693 82.8693C73.8563 82.4676 73.5672 82.1572 73.202 81.9381C72.8369 81.7129 72.423 81.6003 71.9604 81.6003C71.5283 81.6003 71.1205 81.7099 70.7371 81.929C70.3598 82.1481 70.0524 82.4554 69.815 82.851C69.5777 83.2466 69.459 83.7153 69.459 84.257Z" fill="black"/>
<path d="M43.9998 63.3332H52.6145V49.6039H63.3852V63.3332H71.9998V42.3332L57.9998 31.7445L43.9998 42.3332V63.3332ZM41.6665 65.6665V41.1665L57.9998 28.8279L74.3332 41.1665V65.6665H61.0518V51.9372H54.9478V65.6665H41.6665Z" fill="#5E3C9E"/>
</svg>
