<svg width="115" height="115" viewBox="0 0 115 115" fill="none" xmlns="http://www.w3.org/2000/svg">
<rect width="115" height="115" rx="35" fill="white"/>
<path d="M18.3859 75.9492H25.5068V77.3643H19.9288V81.2717H25.3973V82.6502H19.9288V86.5849H25.5068V88H18.3859V75.9492ZM29.5765 88H27.9789V75.438H29.5765V88ZM32.8598 84.5765C32.8659 85.0269 32.9633 85.4377 33.1519 85.809C33.3406 86.1802 33.6206 86.4754 33.9918 86.6945C34.3692 86.9136 34.8317 87.0232 35.3795 87.0232C35.8421 87.0232 36.2346 86.9562 36.5572 86.8223C36.8859 86.6823 37.1537 86.518 37.3606 86.3293C37.5675 86.1346 37.7166 85.9611 37.8079 85.809L38.5839 86.7675C38.3831 87.0597 38.1366 87.3153 37.8444 87.5344C37.5584 87.7535 37.2084 87.9209 36.7946 88.0365C36.3807 88.1582 35.8755 88.2191 35.2791 88.2191C34.4757 88.2191 33.7788 88.0487 33.1885 87.7079C32.6042 87.3609 32.1538 86.8832 31.8373 86.2746C31.5208 85.6598 31.3626 84.9569 31.3626 84.1657C31.3626 83.4353 31.5117 82.778 31.8099 82.1937C32.1082 81.6034 32.5403 81.1378 33.1063 80.7969C33.6784 80.4561 34.3662 80.2857 35.1695 80.2857C35.906 80.2857 36.545 80.4409 37.0867 80.7513C37.6345 81.0556 38.0575 81.4877 38.3557 82.0477C38.66 82.6076 38.8122 83.2771 38.8122 84.0561C38.8122 84.1048 38.8091 84.1931 38.803 84.3209C38.7969 84.4426 38.7908 84.5278 38.7848 84.5765H32.8598ZM37.2967 83.3805C37.2906 83.131 37.2176 82.8571 37.0776 82.5589C36.9437 82.2607 36.7246 82.0051 36.4203 81.792C36.1159 81.579 35.7051 81.4725 35.1878 81.4725C34.6522 81.4725 34.2201 81.576 33.8914 81.7829C33.5689 81.9898 33.3315 82.2424 33.1793 82.5406C33.0272 82.8328 32.9389 83.1127 32.9146 83.3805H37.2967ZM39.9271 80.5048H41.3969V77.4282H42.9763V80.5048H44.9026V81.8651H42.9763V85.5716C42.9763 86.0098 43.0524 86.3324 43.2045 86.5393C43.3628 86.7462 43.5727 86.8497 43.8344 86.8497C44.0657 86.8497 44.2453 86.8071 44.3731 86.7219C44.5009 86.6367 44.577 86.5789 44.6013 86.5484L45.2312 87.717C45.1947 87.7474 45.0973 87.8052 44.9391 87.8904C44.7809 87.9757 44.577 88.0517 44.3274 88.1187C44.0779 88.1856 43.7858 88.2191 43.451 88.2191C42.8667 88.2191 42.3768 88.0426 41.9812 87.6896C41.5917 87.3305 41.3969 86.7645 41.3969 85.9915V81.8651H39.9271V80.5048ZM48.1719 88H46.5925V80.5048H48.1719V81.8012H48.1262C48.1567 81.6429 48.2693 81.4451 48.464 81.2078C48.6588 80.9704 48.9266 80.7574 49.2674 80.5687C49.6082 80.38 50.016 80.2857 50.4907 80.2857C50.8377 80.2857 51.142 80.3344 51.4037 80.4318C51.6715 80.5231 51.8601 80.6143 51.9697 80.7056L51.3215 82.0203C51.2363 81.9351 51.0872 81.8499 50.8742 81.7646C50.6612 81.6734 50.3964 81.6277 50.0799 81.6277C49.6782 81.6277 49.3344 81.7525 49.0483 82.002C48.7623 82.2515 48.5431 82.5528 48.391 82.9058C48.2449 83.2527 48.1719 83.5753 48.1719 83.8735V88ZM56.3029 88.2191C55.5299 88.2191 54.8422 88.0456 54.2396 87.6987C53.6432 87.3518 53.1745 86.8832 52.8337 86.2928C52.4929 85.6964 52.3225 85.0238 52.3225 84.2752C52.3225 83.5266 52.4929 82.851 52.8337 82.2485C53.1745 81.646 53.6432 81.1682 54.2396 80.8152C54.8422 80.4622 55.5299 80.2857 56.3029 80.2857C57.0697 80.2857 57.7483 80.4622 58.3387 80.8152C58.9352 81.1682 59.4008 81.646 59.7355 82.2485C60.0702 82.851 60.2376 83.5266 60.2376 84.2752C60.2376 85.0238 60.0702 85.6964 59.7355 86.2928C59.4008 86.8832 58.9352 87.3518 58.3387 87.6987C57.7483 88.0456 57.0697 88.2191 56.3029 88.2191ZM56.3029 86.8588C56.7898 86.8588 57.2128 86.7462 57.5718 86.521C57.937 86.2959 58.22 85.9885 58.4209 85.599C58.6217 85.2034 58.7221 84.7591 58.7221 84.2661C58.7221 83.7731 58.6217 83.3288 58.4209 82.9332C58.22 82.5376 57.937 82.2242 57.5718 81.9929C57.2128 81.7616 56.7898 81.646 56.3029 81.646C55.8099 81.646 55.3808 81.7616 55.0156 81.9929C54.6505 82.2242 54.3644 82.5376 54.1575 82.9332C53.9566 83.3288 53.8562 83.7731 53.8562 84.2661C53.8562 84.7591 53.9566 85.2034 54.1575 85.599C54.3644 85.9885 54.6505 86.2959 55.0156 86.521C55.3808 86.7462 55.8099 86.8588 56.3029 86.8588ZM58.3296 79.6466L56.2846 78.1494L54.2488 79.6375L53.5549 78.7154L56.2846 76.7161L59.0234 78.7154L58.3296 79.6466ZM66.1891 80.2857C66.6821 80.2857 67.1599 80.3892 67.6224 80.5961C68.0911 80.803 68.4745 81.1317 68.7727 81.5821C69.077 82.0264 69.2292 82.6076 69.2292 83.3258V88H67.6224V83.6362C67.6224 82.8936 67.449 82.355 67.102 82.0203C66.7551 81.6794 66.3078 81.509 65.76 81.509C65.4009 81.509 65.054 81.6125 64.7193 81.8194C64.3906 82.0203 64.1198 82.3002 63.9068 82.6593C63.6937 83.0123 63.5872 83.414 63.5872 83.8644V88H61.9987V80.5048H63.5872V81.8377C63.642 81.6307 63.7911 81.4056 64.0346 81.1621C64.278 80.9187 64.5884 80.7117 64.9658 80.5413C65.3431 80.3709 65.7509 80.2857 66.1891 80.2857ZM71.4799 88V80.5048H73.0684V88H71.4799ZM72.2924 77.9394C72.0063 77.9394 71.7598 77.839 71.5529 77.6382C71.352 77.4312 71.2516 77.1847 71.2516 76.8987C71.2516 76.6126 71.352 76.3662 71.5529 76.1592C71.7598 75.9523 72.0063 75.8488 72.2924 75.8488C72.481 75.8488 72.6545 75.8975 72.8127 75.9949C72.9771 76.0923 73.1079 76.2201 73.2053 76.3783C73.3027 76.5305 73.3514 76.7039 73.3514 76.8987C73.3514 77.1847 73.2479 77.4312 73.041 77.6382C72.834 77.839 72.5845 77.9394 72.2924 77.9394ZM79.0297 86.9045C79.5044 86.9045 79.8879 86.8284 80.18 86.6762C80.4721 86.5241 80.6547 86.4145 80.7278 86.3476L81.5038 87.4888C81.4429 87.5435 81.2968 87.6318 81.0655 87.7535C80.8404 87.8691 80.5482 87.9757 80.1891 88.073C79.8361 88.1704 79.4344 88.2191 78.9841 88.2191C78.2963 88.2191 77.6573 88.0669 77.0669 87.7626C76.4765 87.4522 75.9987 87.0019 75.6336 86.4115C75.2745 85.8211 75.0949 85.0999 75.0949 84.2478C75.0949 83.3897 75.2745 82.6685 75.6336 82.0842C75.9987 81.4938 76.4765 81.0465 77.0669 80.7422C77.6573 80.4378 78.2963 80.2857 78.9841 80.2857C79.4283 80.2857 79.824 80.3405 80.1709 80.45C80.5178 80.5535 80.8038 80.6691 81.029 80.7969C81.2542 80.9247 81.4033 81.0221 81.4764 81.0891L80.6912 82.2302C80.6426 82.1816 80.5482 82.1085 80.4082 82.0111C80.2743 81.9077 80.0917 81.8133 79.8605 81.7281C79.6292 81.6429 79.3523 81.6003 79.0297 81.6003C78.6402 81.6003 78.2598 81.7068 77.8885 81.9198C77.5234 82.1268 77.2221 82.428 76.9847 82.8237C76.7474 83.2193 76.6287 83.694 76.6287 84.2478C76.6287 84.8017 76.7474 85.2795 76.9847 85.6811C77.2221 86.0767 77.5234 86.3811 77.8885 86.5941C78.2598 86.801 78.6402 86.9045 79.0297 86.9045ZM86.5439 88.2191C85.7709 88.2191 85.0832 88.0456 84.4806 87.6987C83.8842 87.3518 83.4155 86.8832 83.0747 86.2928C82.7339 85.6964 82.5635 85.0238 82.5635 84.2752C82.5635 83.5266 82.7339 82.851 83.0747 82.2485C83.4155 81.646 83.8842 81.1682 84.4806 80.8152C85.0832 80.4622 85.7709 80.2857 86.5439 80.2857C87.3107 80.2857 87.9894 80.4622 88.5797 80.8152C89.1762 81.1682 89.6418 81.646 89.9765 82.2485C90.3113 82.851 90.4786 83.5266 90.4786 84.2752C90.4786 85.0238 90.3113 85.6964 89.9765 86.2928C89.6418 86.8832 89.1762 87.3518 88.5797 87.6987C87.9894 88.0456 87.3107 88.2191 86.5439 88.2191ZM86.5439 86.8588C87.0308 86.8588 87.4538 86.7462 87.8129 86.521C88.178 86.2959 88.461 85.9885 88.6619 85.599C88.8627 85.2034 88.9632 84.7591 88.9632 84.2661C88.9632 83.7731 88.8627 83.3288 88.6619 82.9332C88.461 82.5376 88.178 82.2242 87.8129 81.9929C87.4538 81.7616 87.0308 81.646 86.5439 81.646C86.0509 81.646 85.6218 81.7616 85.2566 81.9929C84.8915 82.2242 84.6054 82.5376 84.3985 82.9332C84.1976 83.3288 84.0972 83.7731 84.0972 84.2661C84.0972 84.7591 84.1976 85.2034 84.3985 85.599C84.6054 85.9885 84.8915 86.2959 85.2566 86.521C85.6218 86.7462 86.0509 86.8588 86.5439 86.8588ZM95.0516 80.2857C95.4411 80.2857 95.8032 80.3253 96.138 80.4044C96.4788 80.4835 96.7709 80.5778 97.0144 80.6874C97.2639 80.7969 97.4404 80.8943 97.5439 80.9795L96.914 81.9838C96.7922 81.8742 96.5731 81.7525 96.2567 81.6186C95.9402 81.4786 95.5872 81.4086 95.1977 81.4086C94.7716 81.4086 94.4095 81.4938 94.1113 81.6642C93.813 81.8286 93.6639 82.069 93.6639 82.3854C93.6639 82.7019 93.8161 82.9545 94.1204 83.1432C94.4308 83.3258 94.8447 83.4779 95.362 83.5996C95.7758 83.697 96.1623 83.8279 96.5214 83.9922C96.8866 84.1565 97.1818 84.3848 97.407 84.6769C97.6322 84.963 97.7447 85.3464 97.7447 85.8272C97.7447 86.2654 97.6535 86.6397 97.4709 86.9501C97.2883 87.2544 97.0418 87.5009 96.7314 87.6896C96.421 87.8722 96.0741 88.0061 95.6906 88.0913C95.3072 88.1765 94.9177 88.2191 94.5221 88.2191C94.0595 88.2191 93.6426 88.1704 93.2714 88.073C92.9001 87.9817 92.5867 87.8722 92.331 87.7444C92.0815 87.6105 91.8989 87.4948 91.7833 87.3975L92.4132 86.2654C92.5714 86.4176 92.8301 86.5789 93.1892 86.7493C93.5544 86.9197 93.9682 87.0049 94.4308 87.0049C94.942 87.0049 95.3559 86.8984 95.6724 86.6854C95.9889 86.4663 96.1471 86.1833 96.1471 85.8363C96.1471 85.5746 96.071 85.3647 95.9189 85.2064C95.7667 85.0482 95.5628 84.9204 95.3072 84.823C95.0516 84.7256 94.7716 84.6404 94.4673 84.5674C94.1752 84.5004 93.8891 84.4122 93.6091 84.3026C93.3353 84.1931 93.0827 84.0531 92.8514 83.8827C92.6262 83.7062 92.4467 83.4931 92.3128 83.2436C92.1789 82.988 92.1119 82.6898 92.1119 82.3489C92.1119 81.9168 92.2489 81.5486 92.5228 81.2443C92.7966 80.9339 93.1557 80.6965 93.6 80.5322C94.0443 80.3679 94.5282 80.2857 95.0516 80.2857Z" fill="black"/>
<path d="M75.8281 59.6562C76.4619 59.6555 77.0695 59.4033 77.5177 58.9552C77.9658 58.507 78.218 57.8994 78.2188 57.2656V33.3594C78.218 32.7256 77.9658 32.118 77.5177 31.6698C77.0695 31.2217 76.4619 30.9695 75.8281 30.9688H39.1719C38.5381 30.9695 37.9305 31.2217 37.4823 31.6698C37.0342 32.118 36.782 32.7256 36.7812 33.3594V57.2656C36.782 57.8994 37.0342 58.507 37.4823 58.9552C37.9305 59.4033 38.5381 59.6555 39.1719 59.6562H75.8281ZM39.9688 34.1562H75.0312V56.4688H39.9688V34.1562ZM33.5938 62.8438H81.4062V66.0312H33.5938V62.8438Z" fill="#5E3C9E"/>
</svg>
