<svg width="115" height="115" viewBox="0 0 115 115" fill="none" xmlns="http://www.w3.org/2000/svg">
<rect width="115" height="115" rx="35" fill="white"/>
<path d="M24.6532 75.9492H30.9342V77.3643H26.2052V81.2534H30.6147V82.6593H26.2052V88H24.6532V75.9492ZM38.2824 88V86.5393C38.2337 86.6915 38.0906 86.9014 37.8533 87.1692C37.622 87.437 37.3025 87.6805 36.8947 87.8996C36.493 88.1126 36.0183 88.2191 35.4705 88.2191C34.7767 88.2191 34.1468 88.0548 33.5807 87.7261C33.0208 87.3975 32.5735 86.938 32.2387 86.3476C31.9101 85.7511 31.7457 85.0543 31.7457 84.257C31.7457 83.4597 31.9101 82.7658 32.2387 82.1755C32.5735 81.579 33.0208 81.1165 33.5807 80.7878C34.1468 80.4531 34.7767 80.2857 35.4705 80.2857C36.0122 80.2857 36.4808 80.3831 36.8764 80.5778C37.2781 80.7726 37.5977 80.9978 37.835 81.2534C38.0785 81.509 38.2215 81.7281 38.2641 81.9107V80.5048H39.8344V88H38.2824ZM33.316 84.257C33.316 84.7986 33.4347 85.2673 33.672 85.6629C33.9094 86.0585 34.2168 86.3658 34.5941 86.5849C34.9775 86.798 35.3853 86.9045 35.8174 86.9045C36.28 86.9045 36.6939 86.7949 37.059 86.5758C37.4242 86.3567 37.7133 86.0494 37.9263 85.6538C38.1393 85.2521 38.2458 84.7865 38.2458 84.257C38.2458 83.7275 38.1393 83.2649 37.9263 82.8693C37.7133 82.4676 37.4242 82.1572 37.059 81.9381C36.6939 81.7129 36.28 81.6003 35.8174 81.6003C35.3853 81.6003 34.9775 81.7099 34.5941 81.929C34.2168 82.1481 33.9094 82.4554 33.672 82.851C33.4347 83.2466 33.316 83.7153 33.316 84.257ZM43.5181 88H41.9387V80.5048H43.5181V81.8012H43.4724C43.5028 81.6429 43.6154 81.4451 43.8102 81.2078C44.0049 80.9704 44.2727 80.7574 44.6136 80.5687C44.9544 80.38 45.3622 80.2857 45.8369 80.2857C46.1838 80.2857 46.4881 80.3344 46.7498 80.4318C47.0176 80.5231 47.2063 80.6143 47.3159 80.7056L46.6677 82.0203C46.5825 81.9351 46.4334 81.8499 46.2203 81.7646C46.0073 81.6734 45.7426 81.6277 45.4261 81.6277C45.0244 81.6277 44.6805 81.7525 44.3945 82.002C44.1084 82.2515 43.8893 82.5528 43.7372 82.9058C43.5911 83.2527 43.5181 83.5753 43.5181 83.8735V88ZM57.3328 80.2857C57.8866 80.2857 58.3613 80.4074 58.757 80.6509C59.1526 80.8882 59.4538 81.2534 59.6608 81.7464C59.8738 82.2394 59.9803 82.8693 59.9803 83.6362V88H58.41V83.9557C58.41 83.1462 58.2974 82.5376 58.0722 82.1298C57.8471 81.722 57.4362 81.5182 56.8398 81.5182C56.5233 81.5182 56.219 81.6064 55.9268 81.7829C55.6408 81.9533 55.4034 82.2181 55.2148 82.5772C55.0322 82.9362 54.9409 83.3958 54.9409 83.9557V88H53.4619V83.9557C53.4619 83.1462 53.3219 82.5376 53.042 82.1298C52.762 81.722 52.3694 81.5182 51.8643 81.5182C51.5417 81.5182 51.2374 81.6034 50.9513 81.7738C50.6714 81.9381 50.4431 82.1998 50.2666 82.5589C50.0901 82.918 50.0019 83.3836 50.0019 83.9557V88H48.4225V80.5048H50.0019V81.6551C50.0688 81.4664 50.2119 81.2656 50.431 81.0526C50.6562 80.8395 50.9422 80.66 51.2891 80.5139C51.6421 80.3618 52.0347 80.2857 52.4668 80.2857C52.9172 80.2857 53.2946 80.377 53.5989 80.5596C53.9032 80.7422 54.1436 80.9673 54.3201 81.2351C54.4966 81.4969 54.6183 81.7494 54.6853 81.9929C54.7705 81.7312 54.9348 81.4695 55.1782 81.2078C55.4217 80.94 55.729 80.7209 56.1003 80.5504C56.4716 80.3739 56.8824 80.2857 57.3328 80.2857ZM68.2024 88V86.5393C68.1537 86.6915 68.0107 86.9014 67.7733 87.1692C67.5421 87.437 67.2225 87.6805 66.8148 87.8996C66.4131 88.1126 65.9383 88.2191 65.3906 88.2191C64.6967 88.2191 64.0668 88.0548 63.5008 87.7261C62.9409 87.3975 62.4935 86.938 62.1588 86.3476C61.8301 85.7511 61.6658 85.0543 61.6658 84.257C61.6658 83.4597 61.8301 82.7658 62.1588 82.1755C62.4935 81.579 62.9409 81.1165 63.5008 80.7878C64.0668 80.4531 64.6967 80.2857 65.3906 80.2857C65.9322 80.2857 66.4009 80.3831 66.7965 80.5778C67.1982 80.7726 67.5177 80.9978 67.7551 81.2534C67.9985 81.509 68.1416 81.7281 68.1842 81.9107V80.5048H69.7544V88H68.2024ZM63.236 84.257C63.236 84.7986 63.3547 85.2673 63.5921 85.6629C63.8295 86.0585 64.1368 86.3658 64.5142 86.5849C64.8976 86.798 65.3054 86.9045 65.7375 86.9045C66.2 86.9045 66.6139 86.7949 66.9791 86.5758C67.3443 86.3567 67.6334 86.0494 67.8464 85.6538C68.0594 85.2521 68.1659 84.7865 68.1659 84.257C68.1659 83.7275 68.0594 83.2649 67.8464 82.8693C67.6334 82.4676 67.3443 82.1572 66.9791 81.9381C66.6139 81.7129 66.2 81.6003 65.7375 81.6003C65.3054 81.6003 64.8976 81.7099 64.5142 81.929C64.1368 82.1481 63.8295 82.4554 63.5921 82.851C63.3547 83.2466 63.236 83.7153 63.236 84.257ZM64.6967 79.4732L64.1399 78.7154L66.906 76.424L67.819 77.556L64.6967 79.4732ZM75.41 86.9045C75.8848 86.9045 76.2682 86.8284 76.5603 86.6762C76.8525 86.5241 77.0351 86.4145 77.1081 86.3476L77.8841 87.4888C77.8232 87.5435 77.6772 87.6318 77.4459 87.7535C77.2207 87.8691 76.9286 87.9757 76.5695 88.073C76.2165 88.1704 75.8148 88.2191 75.3644 88.2191C74.6767 88.2191 74.0376 88.0669 73.4472 87.7626C72.8569 87.4522 72.3791 87.0019 72.0139 86.4115C71.6548 85.8211 71.4753 85.0999 71.4753 84.2478C71.4753 83.3897 71.6548 82.6685 72.0139 82.0842C72.3791 81.4938 72.8569 81.0465 73.4472 80.7422C74.0376 80.4378 74.6767 80.2857 75.3644 80.2857C75.8087 80.2857 76.2043 80.3405 76.5512 80.45C76.8981 80.5535 77.1842 80.6691 77.4094 80.7969C77.6346 80.9247 77.7837 81.0221 77.8567 81.0891L77.0716 82.2302C77.0229 82.1816 76.9286 82.1085 76.7886 82.0111C76.6547 81.9077 76.4721 81.8133 76.2408 81.7281C76.0095 81.6429 75.7326 81.6003 75.41 81.6003C75.0205 81.6003 74.6401 81.7068 74.2689 81.9198C73.9037 82.1268 73.6024 82.428 73.3651 82.8237C73.1277 83.2193 73.009 83.694 73.009 84.2478C73.009 84.8017 73.1277 85.2795 73.3651 85.6811C73.6024 86.0767 73.9037 86.3811 74.2689 86.5941C74.6401 86.801 75.0205 86.9045 75.41 86.9045ZM79.5929 88V80.5048H81.1814V88H79.5929ZM80.4054 77.9394C80.1193 77.9394 79.8728 77.839 79.6659 77.6382C79.4651 77.4312 79.3646 77.1847 79.3646 76.8987C79.3646 76.6126 79.4651 76.3662 79.6659 76.1592C79.8728 75.9523 80.1193 75.8488 80.4054 75.8488C80.5941 75.8488 80.7675 75.8975 80.9258 75.9949C81.0901 76.0923 81.2209 76.2201 81.3183 76.3783C81.4157 76.5305 81.4644 76.7039 81.4644 76.8987C81.4644 77.1847 81.3609 77.4312 81.154 77.6382C80.9471 77.839 80.6975 77.9394 80.4054 77.9394ZM89.635 88V86.5393C89.5863 86.6915 89.4433 86.9014 89.2059 87.1692C88.9747 87.437 88.6551 87.6805 88.2474 87.8996C87.8457 88.1126 87.3709 88.2191 86.8232 88.2191C86.1293 88.2191 85.4994 88.0548 84.9334 87.7261C84.3735 87.3975 83.9261 86.938 83.5914 86.3476C83.2627 85.7511 83.0984 85.0543 83.0984 84.257C83.0984 83.4597 83.2627 82.7658 83.5914 82.1755C83.9261 81.579 84.3735 81.1165 84.9334 80.7878C85.4994 80.4531 86.1293 80.2857 86.8232 80.2857C87.3649 80.2857 87.8335 80.3831 88.2291 80.5778C88.6308 80.7726 88.9503 80.9978 89.1877 81.2534C89.4311 81.509 89.5742 81.7281 89.6168 81.9107V80.5048H91.187V88H89.635ZM84.6687 84.257C84.6687 84.7986 84.7873 85.2673 85.0247 85.6629C85.2621 86.0585 85.5694 86.3658 85.9468 86.5849C86.3302 86.798 86.738 86.9045 87.1701 86.9045C87.6327 86.9045 88.0465 86.7949 88.4117 86.5758C88.7769 86.3567 89.066 86.0494 89.279 85.6538C89.492 85.2521 89.5985 84.7865 89.5985 84.257C89.5985 83.7275 89.492 83.2649 89.279 82.8693C89.066 82.4676 88.7769 82.1572 88.4117 81.9381C88.0465 81.7129 87.6327 81.6003 87.1701 81.6003C86.738 81.6003 86.3302 81.7099 85.9468 81.929C85.5694 82.1481 85.2621 82.4554 85.0247 82.851C84.7873 83.2466 84.6687 83.7153 84.6687 84.257Z" fill="black"/>
<path d="M72.1801 50.2898C72.8971 51.5129 73.3651 52.8657 73.5572 54.2703C73.7492 55.6749 73.6616 57.1037 73.2992 58.4743C72.9368 59.8449 72.3069 61.1303 71.4457 62.2565C70.5846 63.3827 69.5092 64.3274 68.2814 65.0363C67.0536 65.7452 65.6978 66.2042 64.2919 66.3869C62.886 66.5697 61.4579 66.4725 60.0897 66.101C58.7215 65.7296 57.4403 65.0912 56.3199 64.2226C55.1994 63.3539 54.2618 62.2723 53.5611 61.0398M72.1801 50.2898C70.7445 47.8409 68.3984 46.0593 65.654 45.3337C62.9096 44.6081 59.9895 44.9975 57.5312 46.4169C55.0728 47.8363 53.2756 50.1704 52.5318 52.91C51.7881 55.6495 52.1581 58.5721 53.5611 61.0398M72.1801 50.2898L53.5611 61.0398" stroke="#5E3C9E" stroke-width="2.6875"/>
<path d="M53.9937 36.9294L63.1043 31.5454C66.4583 29.5638 70.7476 30.7392 72.6844 34.1738C73.4245 35.488 73.74 36.9989 73.5877 38.4994C73.4353 40 72.8225 41.4167 71.8333 42.5552M53.9937 36.9294L44.8831 42.3133C41.5291 44.2949 40.3788 48.6845 42.3156 52.1173C42.8568 53.091 43.623 53.9211 44.5502 54.5385C45.4774 55.156 46.5388 55.5427 47.6458 55.6666M53.9937 36.9294L56.6042 41.3333" stroke="#5E3C9E" stroke-width="2.6875" stroke-linecap="round" stroke-linejoin="round"/>
</svg>
