<svg width="16" height="16" viewBox="0 0 16 16" fill="none" xmlns="http://www.w3.org/2000/svg">
<path d="M3.4417 2.70838C3.49163 2.68367 3.54594 2.66903 3.60153 2.66531C3.65712 2.66159 3.7129 2.66886 3.76568 2.68671C3.81845 2.70455 3.8672 2.73261 3.90913 2.7693C3.95106 2.80599 3.98535 2.85057 4.01004 2.90052L4.34554 3.58083L5.02967 2.84707C5.10635 2.76481 5.21255 2.71637 5.32493 2.71239C5.43732 2.70841 5.54668 2.74923 5.62898 2.82587C5.79991 2.98619 5.80924 3.25467 5.64976 3.42602L4.7472 4.39433L5.08778 5.08398L5.65231 4.5695C5.69352 4.532 5.74171 4.50299 5.79414 4.48412C5.84656 4.46525 5.90219 4.4569 5.95785 4.45954C6.0135 4.46218 6.06809 4.47576 6.1185 4.4995C6.1689 4.52324 6.21413 4.55668 6.25161 4.59791C6.28924 4.63914 6.31836 4.68739 6.3373 4.7399C6.35624 4.79241 6.36463 4.84813 6.36199 4.90389C6.35935 4.95965 6.34573 5.01433 6.32192 5.06482C6.2981 5.1153 6.26455 5.16058 6.22319 5.19807L5.47883 5.87584L5.92672 6.78307C5.97667 6.88392 5.98451 7.00047 5.94851 7.1071C5.91252 7.21372 5.83565 7.30168 5.7348 7.35163C5.63395 7.40157 5.5174 7.40941 5.41077 7.37342C5.30415 7.33743 5.21619 7.26055 5.16624 7.15971L4.70181 6.21854L3.86881 6.38735C3.7584 6.40968 3.64364 6.38724 3.54979 6.32495C3.45593 6.26267 3.39065 6.16566 3.36832 6.05525C3.34599 5.94484 3.36844 5.83009 3.43072 5.73623C3.493 5.64237 3.59002 5.5771 3.70042 5.55477L4.31288 5.43092L3.97569 4.74806L2.68631 4.94231C2.57495 4.95902 2.46151 4.9308 2.37095 4.86387C2.28039 4.79693 2.22013 4.69677 2.20343 4.5854C2.18673 4.47404 2.21494 4.3606 2.28188 4.27004C2.34881 4.17949 2.44898 4.11923 2.56034 4.10252L3.58082 3.94856L3.24957 3.27715C3.22479 3.2272 3.2101 3.17285 3.20635 3.11721C3.20259 3.06158 3.20985 3.00575 3.22769 2.95292C3.24554 2.9001 3.27362 2.85131 3.31035 2.80934C3.34707 2.76738 3.3917 2.73307 3.4417 2.70838ZM13.0272 6.46751C13.0826 6.46176 13.1386 6.46698 13.1921 6.48288C13.2455 6.49878 13.2952 6.52505 13.3385 6.56018C13.3817 6.59532 13.4176 6.63863 13.4441 6.68765C13.4706 6.73666 13.4872 6.79042 13.4929 6.84584C13.5777 7.65467 13.2215 8.41939 12.5484 8.87492C12.455 8.9328 12.3428 8.95226 12.2354 8.92923C12.128 8.90619 12.0336 8.84245 11.9722 8.75138C11.9107 8.66031 11.8869 8.54897 11.9058 8.44074C11.9247 8.3325 11.9847 8.23578 12.0733 8.17085C12.274 8.03779 12.434 7.85188 12.5356 7.63362C12.6372 7.41537 12.6766 7.17327 12.6493 6.93406C12.6434 6.87861 12.6485 6.82254 12.6644 6.76906C12.6802 6.71558 12.7064 6.66575 12.7415 6.62241C12.7766 6.57908 12.8199 6.54309 12.8689 6.51651C12.918 6.48993 12.9717 6.47328 13.0272 6.46751Z" fill="#6A38F3"/>
<path fill-rule="evenodd" clip-rule="evenodd" d="M1.74328 15.2684C3.00042 15.2047 3.7855 14.8552 4.27326 14.3386C4.44376 14.5821 4.73981 14.7246 5.06088 14.6746C6.74641 14.4116 10.5026 13.7194 14.724 12.2595C14.8826 12.2093 15.0212 12.1099 15.1195 11.9757C15.2178 11.8415 15.2708 11.6794 15.2708 11.513C15.2708 11.3467 15.2178 11.1846 15.1195 11.0504C15.0212 10.9162 14.8826 10.8167 14.724 10.7666C14.2453 10.6014 13.7735 10.4458 13.3087 10.2996C14.1506 9.85551 14.7965 9.1103 15.0493 8.16447C15.6198 6.03318 14.1226 4.17885 12.1796 4.76882C12.0426 3.79076 12.3599 2.88989 13.1925 2.4085L12.7683 1.67304C11.7385 2.26811 11.3059 3.28646 11.3021 4.32942C10.5721 3.77083 9.68738 3.74962 8.93538 4.1428C8.9322 4.01686 8.91426 3.89174 8.88194 3.76998C8.75258 3.28604 8.40691 2.94037 7.93187 2.74145C7.83432 2.29356 7.60953 1.74981 7.18496 1.34434C6.69296 0.875241 5.98635 0.641965 5.06555 0.868454C4.83917 0.558947 4.53516 0.314626 4.18419 0.160144C3.61797 -0.0837351 2.90669 -0.0786454 2.10422 0.383241C1.2657 0.775568 0.861496 1.35282 0.749948 1.95806C0.674451 2.36948 0.740192 2.75968 0.848347 3.06761C0.136644 3.69151 -0.0775452 4.40407 0.024672 5.07548C0.113317 5.65612 0.429723 6.15236 0.740192 6.48913C0.630765 6.99258 0.716016 7.47355 1.03794 7.8574C1.12107 7.95608 1.21579 8.04416 1.32211 8.12163C1.32021 8.13881 1.31936 8.15609 1.31956 8.17338C1.32932 8.96143 1.37428 9.58449 1.53587 10.0689C1.01503 10.2678 0.523882 10.672 0.0759926 11.2819C0.0266282 11.3489 0 11.43 0 11.5133C0 11.5965 0.0266282 11.6776 0.0759926 11.7446C0.520065 12.3494 1.00697 12.7524 1.52315 12.9526C1.38573 13.4225 1.33229 14.0409 1.31999 14.8519C1.31867 14.9075 1.32877 14.9628 1.34966 15.0144C1.37056 15.066 1.4018 15.1127 1.44147 15.1517C1.48114 15.1908 1.52838 15.2213 1.58029 15.2413C1.6322 15.2614 1.68767 15.2706 1.74328 15.2684ZM5.05622 11.513C5.05622 11.9499 5.03925 12.3868 4.96969 12.8003V13.8293C5.38111 13.7644 5.91425 13.6744 6.54494 13.554V11.9838H7.39322V13.3856C8.83721 13.0872 10.2694 12.7344 11.6868 12.3278V11.5135H12.535V12.0776C13.1047 11.9037 13.6887 11.7162 14.2825 11.5135C13.4688 11.2351 12.6486 10.9763 11.8225 10.7373L11.7758 10.7415L10.3791 10.3395C10.1592 10.2821 9.94285 10.2269 9.73022 10.174V11.9838H8.88194V9.96875C7.58767 9.66399 6.28272 9.40651 4.96969 9.19682V10.2258C5.03883 10.6393 5.05622 11.0762 5.05622 11.513ZM4.12142 12.7261V10.3C4.06204 9.97766 3.96661 9.70494 3.8207 9.48015C3.59803 9.13702 3.16923 8.78032 2.18014 8.64884C2.20177 9.16756 2.25055 9.53104 2.34004 9.79952L2.59792 10.5723L1.83786 10.8624C1.57362 10.9634 1.28097 11.1644 0.976437 11.513C1.27757 11.8583 1.56811 12.0589 1.8298 12.1607L2.55635 12.4432L2.33707 13.1918C2.25648 13.467 2.20644 13.8441 2.18226 14.3768C3.17008 14.2453 3.59803 13.8891 3.8207 13.5464C3.96661 13.3216 4.06204 13.0488 4.12184 12.7265M4.5235 8.45543C4.03786 8.0788 3.45849 7.78529 2.75018 7.72379C2.1759 7.67374 1.84549 7.499 1.68772 7.31111C1.54775 7.14442 1.48201 6.89248 1.61688 6.50228L1.70935 6.23507L1.49897 6.04675C1.22965 5.80584 0.931478 5.39231 0.863616 4.94781C0.803389 4.55082 0.913241 4.05034 1.61646 3.54095L1.91972 3.32167L1.73988 2.99296C1.62537 2.78386 1.52357 2.44582 1.58465 2.11245C1.64064 1.80877 1.8438 1.43892 2.47788 1.14626L2.49655 1.13778L2.51394 1.1276C3.11791 0.775568 3.55307 0.812892 3.84997 0.940982C4.17147 1.07883 4.39584 1.3524 4.49636 1.55598L4.66219 1.89105L5.01508 1.76932C5.83578 1.48515 6.30912 1.68195 6.60008 1.95976C6.92539 2.27023 7.09293 2.75205 7.13619 3.11045L7.1697 3.39038L7.44114 3.46799C7.83814 3.58124 8.00694 3.77974 8.06335 3.99011C8.12697 4.2272 8.08032 4.5979 7.79191 5.09626C7.5749 5.47382 7.43883 5.89241 7.39237 6.32541C7.25792 6.99258 7.33723 7.66484 7.58874 8.27729C7.62607 8.42786 7.66509 8.57334 7.70199 8.71161L7.71683 8.7659C7.72419 8.79248 7.73055 8.81878 7.73592 8.84479C6.61111 8.60897 5.69158 8.45034 5.06173 8.35194C4.8756 8.32239 4.68543 8.35901 4.5235 8.45543ZM11.8993 9.87629C11.0521 9.63355 10.1997 9.40983 9.34255 9.20531C8.92969 8.89269 8.6039 8.47943 8.3963 8.005C8.26906 7.47652 8.18126 6.96119 8.22877 6.4675C8.23725 6.42593 8.24715 6.38437 8.25846 6.3428C8.493 5.46653 9.06135 4.94611 9.60297 4.78325C10.1068 4.63183 10.6909 4.75228 11.1638 5.3957L11.5655 5.94284L12.1872 5.67054C12.918 5.34989 13.4834 5.53779 13.8444 5.92121C14.2324 6.33389 14.4644 7.0685 14.2303 7.94519C13.9601 8.95379 13.0423 9.71385 11.8993 9.87629Z" fill="#6A38F3"/>
</svg>
