<svg width="14" height="11" viewBox="0 0 14 11" fill="none" xmlns="http://www.w3.org/2000/svg">
<path d="M12.3636 8.39793C12.5491 8.3977 12.727 8.32389 12.8582 8.1927C12.9894 8.0615 13.0632 7.88363 13.0634 7.6981V0.699827C13.0632 0.514293 12.9894 0.336423 12.8582 0.20523C12.727 0.0740375 12.5491 0.000231485 12.3636 0H1.63293C1.4474 0.000231485 1.26953 0.0740375 1.13833 0.20523C1.00714 0.336423 0.933334 0.514293 0.933103 0.699827V7.6981C0.933334 7.88363 1.00714 8.0615 1.13833 8.1927C1.26953 8.32389 1.4474 8.3977 1.63293 8.39793H12.3636ZM1.86621 0.933103H12.1303V7.46482H1.86621V0.933103ZM0 9.33103H13.9965V10.2641H0V9.33103Z" fill="#6A38F3"/>
</svg>
