<svg width="12" height="14" viewBox="0 0 12 14" fill="none" xmlns="http://www.w3.org/2000/svg">
<path d="M10.9399 7.16402C11.1839 7.58023 11.3432 8.0406 11.4085 8.51862C11.4739 8.99664 11.444 9.48286 11.3207 9.9493C11.1974 10.4157 10.983 10.8532 10.69 11.2364C10.3969 11.6197 10.0309 11.9412 9.6131 12.1824C9.19527 12.4237 8.73386 12.5799 8.25541 12.6421C7.77697 12.7043 7.29096 12.6712 6.82534 12.5448C6.35973 12.4184 5.92372 12.2011 5.54242 11.9055C5.16111 11.6099 4.84205 11.2418 4.60359 10.8224M10.9399 7.16402C10.4513 6.33061 9.65292 5.72429 8.71896 5.47737C7.78499 5.23044 6.79127 5.36296 5.95464 5.846C5.11802 6.32904 4.50642 7.12338 4.2533 8.05569C4.00018 8.988 4.12611 9.98258 4.60359 10.8224M10.9399 7.16402L4.60359 10.8224" stroke="#6A38F3" stroke-width="0.914593"/>
<path d="M4.75136 2.61742L7.85183 0.785189C8.99324 0.110829 10.4529 0.510811 11.112 1.67966C11.3639 2.12689 11.4713 2.64108 11.4194 3.15173C11.3676 3.66239 11.1591 4.1445 10.8224 4.53197M4.75136 2.61742L1.65088 4.44966C0.509472 5.12402 0.118025 6.61786 0.777142 7.7861C0.961325 8.11744 1.22206 8.39995 1.5376 8.61007C1.85314 8.82018 2.21434 8.95181 2.59109 8.99397M4.75136 2.61742L5.63973 4.11614" stroke="#6A38F3" stroke-width="0.914593" stroke-linecap="round" stroke-linejoin="round"/>
</svg>
