<svg width="11" height="15" viewBox="0 0 11 15" fill="none" xmlns="http://www.w3.org/2000/svg">
<path d="M10.8696 13.2643C10.8683 13.2601 10.8666 13.256 10.8645 13.2522L7.94176 7.02626L9.28288 4.92042L9.28861 4.91151C9.37159 4.77313 9.41543 4.6148 9.41543 4.45345C9.41543 4.29209 9.37159 4.13376 9.28861 3.99538C9.28415 3.98774 9.27907 3.98011 9.27398 3.97247L7.88832 1.99324V0.381724C7.88832 0.280484 7.8481 0.183391 7.77651 0.111804C7.70493 0.0402172 7.60783 0 7.50659 0C7.40535 0 7.30826 0.0402172 7.23667 0.111804C7.16509 0.183391 7.12487 0.280484 7.12487 0.381724V1.97987L6.76223 2.43285C6.60726 2.62651 6.41072 2.78283 6.18717 2.89025C5.96361 2.99768 5.71876 3.05345 5.47073 3.05345C5.22271 3.05345 4.97785 2.99768 4.7543 2.89025C4.53074 2.78283 4.33421 2.62651 4.17923 2.43285L3.8166 1.97987V0.381724C3.8166 0.280484 3.77638 0.183391 3.70479 0.111804C3.6332 0.0402172 3.53611 1.51683e-08 3.43487 1.51683e-08C3.33363 1.51683e-08 3.23654 0.0402172 3.16495 0.111804C3.09337 0.183391 3.05315 0.280484 3.05315 0.381724V1.99324L1.66749 3.97247C1.6624 3.98011 1.65731 3.98774 1.65286 3.99538C1.56987 4.13376 1.52604 4.29209 1.52604 4.45345C1.52604 4.6148 1.56987 4.77313 1.65286 4.91151L1.65858 4.92042L2.99971 7.02626L0.0769739 13.2522C0.0748654 13.256 0.0731597 13.2601 0.0718841 13.2643C0.0139068 13.3997 -0.00957685 13.5474 0.00353604 13.6941C0.0166489 13.8408 0.0659491 13.982 0.147021 14.105C0.228093 14.228 0.338405 14.329 0.468078 14.3989C0.597751 14.4688 0.742735 14.5054 0.890046 14.5055H10.0514C10.1988 14.5055 10.3438 14.4689 10.4736 14.3991C10.6034 14.3292 10.7138 14.2283 10.7949 14.1053C10.8761 13.9823 10.9254 13.841 10.9386 13.6943C10.9517 13.5475 10.9282 13.3997 10.8702 13.2643H10.8696ZM2.30624 4.51707C2.29584 4.49884 2.2901 4.47832 2.28955 4.45734C2.28899 4.43636 2.29363 4.41557 2.30306 4.39682L3.45523 2.75032L3.58247 2.91001C3.80897 3.19306 4.09622 3.42154 4.42296 3.57856C4.74971 3.73558 5.10758 3.8171 5.4701 3.8171C5.83261 3.8171 6.19048 3.73558 6.51723 3.57856C6.84397 3.42154 7.13123 3.19306 7.35772 2.91001L7.48496 2.75032L8.63713 4.39555C8.64705 4.41404 8.65223 4.43469 8.65223 4.45567C8.65223 4.47665 8.64705 4.4973 8.63713 4.51579L7.3011 6.61528H3.64418L2.30624 4.51707ZM10.157 13.6848C10.1458 13.7027 10.13 13.7174 10.1114 13.7274C10.0928 13.7374 10.0719 13.7425 10.0508 13.7421H0.890046C0.869362 13.7421 0.848979 13.7371 0.830664 13.7275C0.812348 13.7179 0.796651 13.7039 0.784933 13.6869C0.773215 13.6699 0.765829 13.6502 0.763414 13.6297C0.760999 13.6091 0.763629 13.5883 0.771075 13.569L3.67727 7.38H7.2642L10.1698 13.569C10.1774 13.5878 10.1803 13.6083 10.1781 13.6285C10.1759 13.6487 10.1686 13.6681 10.157 13.6848Z" fill="#6A38F3"/>
</svg>
