<svg width="14" height="12" viewBox="0 0 14 12" fill="none" xmlns="http://www.w3.org/2000/svg">
<path d="M4.01966 3.43732V6.0718M2.70242 4.75456H5.3369M9.21814 0.471558H3.90901C2.99731 0.471732 2.12302 0.834025 1.47841 1.47875C0.833805 2.12348 0.47168 2.99785 0.47168 3.90955V9.35304C0.47168 10.7197 2.13996 11.3849 3.08113 10.3943L5.04118 8.3302H8.08663L9.98016 10.609C10.8851 11.6984 12.6561 11.0582 12.6561 9.64283V3.90889C12.656 2.99731 12.2938 2.12311 11.6492 1.47852C11.0046 0.833935 10.1297 0.471732 9.21814 0.471558Z" stroke="#6A38F3" stroke-width="0.943023" stroke-linecap="round" stroke-linejoin="round"/>
<path d="M8.316 4.75394C8.67956 4.75394 8.97428 4.45922 8.97428 4.09566C8.97428 3.7321 8.67956 3.43738 8.316 3.43738C7.95244 3.43738 7.65771 3.7321 7.65771 4.09566C7.65771 4.45922 7.95244 4.75394 8.316 4.75394Z" fill="#6A38F3"/>
<path d="M9.7657 6.20279C10.1293 6.20279 10.424 5.90807 10.424 5.54451C10.424 5.18095 10.1293 4.88623 9.7657 4.88623C9.40214 4.88623 9.10742 5.18095 9.10742 5.54451C9.10742 5.90807 9.40214 6.20279 9.7657 6.20279Z" fill="#6A38F3"/>
</svg>
