<svg width="25" height="30" viewBox="0 0 25 30" fill="none" xmlns="http://www.w3.org/2000/svg">
<path d="M12.215 19.1701C10.6915 19.1701 9.14807 18.8622 7.62828 18.254C7.46345 18.1881 7.37323 18.0111 7.41573 17.8384L9.24281 10.4634C9.29226 10.2751 9.48312 10.1615 9.67225 10.2083C9.86138 10.2552 9.97763 10.4452 9.93252 10.6343L8.18094 17.7058C10.8592 18.7052 13.5712 18.7052 16.2492 17.7058L14.4976 10.6343C14.4733 10.5423 14.4872 10.4443 14.5357 10.3627C14.5843 10.2812 14.6633 10.2222 14.7561 10.1996C14.8481 10.1771 14.9452 10.1918 15.0268 10.2413C15.1075 10.2907 15.1656 10.3705 15.1873 10.4634L17.0144 17.8384C17.0569 18.0111 16.9667 18.1881 16.8018 18.254C15.2819 18.8622 13.7383 19.1701 12.215 19.1701Z" fill="#6A38F3"/>
<path d="M12.2155 13.1963C11.2291 13.1946 10.4301 12.3956 10.4292 11.4092C10.4292 11.397 10.4292 11.3814 10.4301 11.3623C10.4413 11.1662 10.6096 11.017 10.8057 11.0283C11.0018 11.0396 11.151 11.207 11.1397 11.4031V11.4092C11.1397 12.0034 11.6212 12.4858 12.2155 12.4858C12.8098 12.4858 13.2921 12.0034 13.2921 11.4092V11.4031C13.28 11.207 13.4301 11.0396 13.6262 11.0283C13.8222 11.017 13.9897 11.1662 14.0009 11.3623C14.0018 11.3814 14.0018 11.3979 14.0018 11.4092H14.0027C14.0018 12.3956 13.2019 13.1955 12.2155 13.1963Z" fill="#6A38F3"/>
<path d="M9.72462 22.5653C9.2301 22.5644 8.75902 22.3527 8.43023 21.9823C8.10142 21.6118 7.947 21.119 8.00599 20.6271L8.29662 18.2023C8.3079 18.1077 8.35474 18.0219 8.42936 17.9629C8.50397 17.9039 8.59853 17.877 8.69222 17.8883C8.78679 17.9004 8.87268 17.9481 8.9308 18.0236C8.98892 18.0982 9.01495 18.1928 9.00281 18.2873L8.71217 20.7122H8.71131C8.67053 21.257 9.06528 21.7385 9.60837 21.8036C10.1506 21.8695 10.6486 21.4956 10.7379 20.956L11.0042 18.7402L11.0051 18.7411C11.0277 18.5459 11.2047 18.4071 11.3998 18.4305C11.595 18.4531 11.7339 18.63 11.7104 18.8252L11.4441 21.041C11.3391 21.9103 10.6008 22.5644 9.72462 22.5653Z" fill="#6A38F3"/>
<path d="M14.7062 22.5652C13.83 22.5643 13.0917 21.9102 12.9867 21.04L12.7204 18.8243C12.6969 18.6299 12.8357 18.4529 13.0309 18.4295C13.2261 18.4061 13.4031 18.5449 13.4265 18.7401L13.6929 20.9558V20.955C13.7822 21.4946 14.2802 21.8685 14.8233 21.8026C15.3655 21.7375 15.7611 21.256 15.7195 20.7112L15.4288 18.2864C15.4167 18.1918 15.4418 18.0972 15.5008 18.0226C15.559 17.9471 15.644 17.8994 15.7385 17.8873C15.8322 17.876 15.9277 17.9029 16.0014 17.9619C16.076 18.0209 16.1237 18.1068 16.1342 18.2013L16.4248 20.627V20.6262C16.4838 21.1181 16.3294 21.6117 16.0014 21.9822C15.6726 22.3526 15.2015 22.5643 14.7062 22.5652Z" fill="#6A38F3"/>
<path d="M12.2151 12.0347C10.0236 12.0347 8.24072 10.2519 8.24072 8.06031C8.24072 5.86973 10.0235 4.08594 12.2151 4.08594C14.4066 4.08594 16.1895 5.86875 16.1895 8.06031C16.1895 10.2518 14.4066 12.0347 12.2151 12.0347ZM12.2151 4.79753C10.4158 4.79753 8.95142 6.26197 8.95142 8.0612C8.95142 9.85965 10.4159 11.324 12.2151 11.324C14.0143 11.324 15.4788 9.86042 15.4788 8.06031C15.4788 6.26019 14.0143 4.79753 12.2151 4.79753Z" fill="#6A38F3"/>
<path d="M14.9578 8.04304C14.1301 8.04304 13.3294 7.88602 12.704 7.59972C12.3552 7.44009 12.0698 7.24402 11.8581 7.02454C11.6915 7.24577 11.4842 7.43315 11.2482 7.57804C10.7693 7.87823 10.1577 8.04307 9.52437 8.04307C9.18776 8.04393 8.85289 7.99622 8.53014 7.90252C8.34709 7.84266 8.24471 7.64834 8.29937 7.46353C8.35315 7.27874 8.54576 7.17117 8.73141 7.2206C8.98908 7.29521 9.25628 7.33339 9.52435 7.33165C10.5029 7.33165 11.3549 6.8354 11.4651 6.2021V6.20297C11.4937 6.0364 11.6351 5.91321 11.8034 5.90801C11.9726 5.9028 12.1218 6.01645 12.1608 6.18043C12.2927 6.73393 13.3997 7.33168 14.9579 7.33168C15.2251 7.33168 15.4923 7.31259 15.7569 7.27528C15.9504 7.24926 16.1282 7.38373 16.156 7.5772C16.1838 7.7698 16.051 7.94852 15.8584 7.97888C15.56 8.02139 15.2588 8.04304 14.9578 8.04304Z" fill="#6A38F3"/>
<path d="M10.8771 9.04388C10.6812 9.04388 10.5225 8.8852 10.5225 8.68922V8.5158C10.5225 8.31984 10.6811 8.16028 10.8771 8.16028C11.0731 8.16028 11.2326 8.31983 11.2326 8.5158V8.68922C11.2326 8.78287 11.1954 8.87392 11.1286 8.93982C11.0618 9.00658 10.9716 9.04388 10.8771 9.04388Z" fill="#6A38F3"/>
<path d="M13.5528 9.04388C13.3568 9.04388 13.1973 8.8852 13.1973 8.68922V8.5158C13.1973 8.31984 13.3568 8.16028 13.5528 8.16028C13.7488 8.16028 13.9074 8.31983 13.9074 8.5158V8.68922C13.9074 8.78287 13.8702 8.87392 13.8043 8.93982C13.7375 9.00658 13.6473 9.04388 13.5528 9.04388Z" fill="#6A38F3"/>
<path d="M12.2153 10.6473C11.6245 10.6482 11.091 10.2942 10.8602 9.7494C10.7864 9.56982 10.8706 9.36333 11.0502 9.287C11.2298 9.21152 11.4371 9.29394 11.5152 9.47266C11.6341 9.75374 11.9099 9.93679 12.2162 9.93679C12.5215 9.93679 12.7974 9.75373 12.9171 9.47266C13.0004 9.30262 13.2008 9.228 13.3752 9.30175C13.5487 9.37549 13.6346 9.57244 13.5704 9.7494C13.3396 10.2942 12.8061 10.6482 12.2153 10.6473Z" fill="#6A38F3"/>
<path d="M7.20093 15.5439C6.39151 15.5439 5.68096 15.006 5.46322 14.2269C5.2446 13.4479 5.57167 12.6185 6.26312 12.1986L9.39153 10.2995C9.55897 10.1997 9.77587 10.2535 9.8765 10.4201C9.978 10.5875 9.92595 10.8044 9.76024 10.9068L6.63183 12.8059C6.11564 13.1191 5.95167 13.7914 6.26486 14.3076C6.57806 14.8229 7.2504 14.9869 7.76573 14.6737L8.40165 14.2876C8.56996 14.1853 8.78858 14.2391 8.89008 14.4065C8.99245 14.5739 8.93866 14.7926 8.77122 14.8949L8.1353 15.281C7.85335 15.4528 7.52972 15.543 7.20093 15.5439Z" fill="#6A38F3"/>
<path d="M17.2294 15.5439C16.9006 15.543 16.577 15.4528 16.2951 15.281L15.6592 14.895C15.4917 14.7926 15.4379 14.574 15.5403 14.4065C15.6418 14.2391 15.8604 14.1853 16.0287 14.2877L16.6647 14.6737C16.9119 14.8247 17.2095 14.8707 17.4915 14.8021C17.7725 14.7336 18.0155 14.5557 18.1664 14.3076C18.3165 14.0604 18.3625 13.7628 18.294 13.4808C18.2246 13.1998 18.0467 12.9568 17.7986 12.8067L14.671 10.9068C14.5053 10.8044 14.4533 10.5875 14.5548 10.4201C14.6563 10.2535 14.8723 10.1997 15.0406 10.2995L18.1673 12.1986C18.8587 12.6185 19.1858 13.4479 18.9672 14.2269C18.7485 15.006 18.038 15.5448 17.2294 15.5439Z" fill="#6A38F3"/>
<path d="M17.1188 8.41668C16.7215 8.41668 15.9615 8.34467 15.5338 7.83541V7.83628C15.4731 7.76427 15.4436 7.67058 15.4522 7.57688C15.46 7.48318 15.5052 7.39556 15.5772 7.3357C15.7272 7.20904 15.9519 7.22813 16.0777 7.37908C16.3519 7.70616 17.0693 7.72004 17.2993 7.69921C17.3097 7.69921 17.3218 7.69747 17.3322 7.69747C18.0002 7.69747 18.3707 7.24809 18.5598 6.88545C18.0436 6.80911 17.7426 6.47249 17.6185 6.29813C17.4771 6.09859 17.3149 5.95717 17.1361 5.87477C16.3874 5.53381 15.4834 6.08038 15.3091 6.19403C15.2301 6.24608 15.1338 6.2643 15.0419 6.24435C14.949 6.22526 14.8675 6.16974 14.8163 6.09079C14.7642 6.01184 14.7469 5.91554 14.7668 5.82272C14.7859 5.72989 14.8423 5.64921 14.9213 5.59803C15.2423 5.38895 16.3709 4.74435 17.4312 5.22844C17.7252 5.36291 17.9829 5.58415 18.1972 5.88691C18.3829 6.14805 18.6535 6.24261 19.0032 6.16366C19.1211 6.13677 19.2452 6.1732 19.3311 6.25822C19.417 6.34411 19.4534 6.4673 19.4274 6.5853C19.3476 6.90456 19.214 7.20734 19.0309 7.4806C18.624 8.08355 18.0428 8.40367 17.3479 8.40889C17.3071 8.41149 17.2264 8.41668 17.1188 8.41668Z" fill="#6A38F3"/>
<path d="M7.08301 5.41406C7.55369 5.19917 8.04815 5.23172 8.47559 5.35059C8.90307 5.46948 9.24613 5.67139 9.39746 5.76953H9.39844C9.46851 5.81526 9.48763 5.90858 9.44238 5.97754L9.44141 5.97852C9.39576 6.04892 9.30175 6.06856 9.23242 6.02344C9.10197 5.93879 8.809 5.7644 8.44824 5.65527C8.13418 5.5603 7.7488 5.50929 7.37109 5.62891L7.20996 5.69043C6.99235 5.79021 6.80397 5.96079 6.64648 6.18066C6.53693 6.33434 6.27788 6.62065 5.83984 6.68555L5.55664 6.72656L5.68848 6.98047C5.89212 7.37272 6.31547 7.90234 7.09863 7.90234C7.09975 7.90234 7.10072 7.90234 7.10156 7.90234L7.11426 7.90332C7.24457 7.91517 7.49886 7.91621 7.75977 7.87109C7.9795 7.83306 8.24488 7.7557 8.43262 7.58887L8.50781 7.51172C8.54815 7.46447 8.61141 7.44818 8.66797 7.46582L8.7207 7.49414C8.78353 7.54711 8.79221 7.64149 8.73926 7.70605C8.56136 7.91758 8.3075 8.04613 8.03809 8.12109C7.76931 8.19585 7.49965 8.21289 7.31152 8.21289C7.21089 8.21288 7.13636 8.20811 7.10059 8.20508H7.08398C6.53785 8.20087 6.07163 7.98257 5.71484 7.55957L5.56836 7.36621C5.3992 7.11336 5.27435 6.83379 5.20117 6.53906C5.19148 6.49081 5.20604 6.43895 5.24219 6.40234L5.24316 6.40332C5.27963 6.36726 5.33295 6.35111 5.38379 6.3623C5.58555 6.40696 5.78009 6.4058 5.95801 6.34473C6.1373 6.28306 6.28482 6.16624 6.39941 6.00586V6.00488C6.59598 5.72794 6.82684 5.53159 7.08301 5.41406Z" fill="#6A38F3" stroke="#6A38F3" stroke-width="0.407172"/>
</svg>
