<svg width="15" height="15" viewBox="0 0 15 15" fill="none" xmlns="http://www.w3.org/2000/svg">
<path d="M5.30355 6.9089L8.91343 10.5194C8.94238 10.5483 8.96535 10.5826 8.98102 10.6204C8.9967 10.6581 9.00476 10.6986 9.00476 10.7395C9.00476 10.7804 8.9967 10.8209 8.98102 10.8586C8.96535 10.8964 8.94238 10.9307 8.91343 10.9596L5.74997 14.1237C5.6922 14.1817 5.62355 14.2277 5.54796 14.2591C5.47236 14.2905 5.39131 14.3067 5.30946 14.3067C5.2276 14.3067 5.14655 14.2905 5.07096 14.2591C4.99536 14.2277 4.92671 14.1817 4.86895 14.1237L1.69926 10.9528C1.64136 10.895 1.59542 10.8264 1.56408 10.7509C1.53274 10.6753 1.5166 10.5943 1.5166 10.5126C1.5166 10.4308 1.53274 10.3498 1.56408 10.2743C1.59542 10.1987 1.64136 10.1301 1.69926 10.0724L4.86273 6.9089C4.89161 6.87995 4.92591 6.85698 4.96368 6.84131C5.00145 6.82563 5.04194 6.81757 5.08283 6.81757C5.12372 6.81757 5.16421 6.82563 5.20198 6.84131C5.23975 6.85698 5.27467 6.87995 5.30355 6.9089Z" stroke="#6A38F3" stroke-width="0.932625" stroke-linecap="round" stroke-linejoin="round"/>
<path d="M8.45183 4.66006L11.1608 7.36902C11.1897 7.3979 11.2127 7.43221 11.2284 7.46997C11.2441 7.50774 11.2521 7.54823 11.2521 7.58912C11.2521 7.63001 11.2441 7.6705 11.2284 7.70827C11.2127 7.74604 11.1897 7.78034 11.1608 7.80922L8.68188 10.2881L5.53271 7.13898L8.01163 4.66006C8.04051 4.63111 8.07482 4.60814 8.11258 4.59246C8.15035 4.57679 8.19084 4.56873 8.23173 4.56873C8.27262 4.56873 8.31311 4.57679 8.35088 4.59246C8.38865 4.60814 8.42295 4.63111 8.45183 4.66006Z" stroke="#6A38F3" stroke-width="0.932625" stroke-linecap="round" stroke-linejoin="round"/>
<path d="M13.2186 4.85153L10.9305 7.13957L8.68164 4.89007L12.8623 0.709426C12.9068 0.664953 12.9634 0.634655 13.0251 0.622356C13.0868 0.610057 13.1508 0.616308 13.2089 0.640321C13.267 0.664335 13.3167 0.705033 13.3518 0.757279C13.3868 0.809525 13.4056 0.870977 13.4057 0.933878V4.40324C13.4045 4.57112 13.3373 4.73277 13.2192 4.8509" stroke="#6A38F3" stroke-width="0.932625" stroke-linecap="round" stroke-linejoin="round"/>
</svg>
