<svg width="115" height="115" viewBox="0 0 115 115" fill="none" xmlns="http://www.w3.org/2000/svg">
<rect width="115" height="115" rx="35" fill="white"/>
<path d="M42.6893 84.3391C42.6893 85.1425 42.5646 85.8333 42.315 86.4115C42.0655 86.9897 41.6912 87.437 41.1921 87.7535C40.6991 88.0639 40.0844 88.2191 39.348 88.2191C38.7698 88.2191 38.2829 88.14 37.8873 87.9817C37.4917 87.8235 37.1843 87.65 36.9652 87.4614C36.7461 87.2666 36.6092 87.1236 36.5544 87.0323L37.2391 85.6903C37.3061 85.7998 37.4126 85.9368 37.5586 86.1011C37.7047 86.2593 37.9086 86.3993 38.1703 86.521C38.432 86.6428 38.7607 86.7036 39.1563 86.7036C39.6249 86.7036 40.0023 86.5971 40.2883 86.3841C40.5805 86.165 40.7935 85.8637 40.9274 85.4803C41.0613 85.0969 41.1282 84.6526 41.1282 84.1474V75.9492H42.6893V84.3391ZM48.2523 88.2191C47.4793 88.2191 46.7916 88.0456 46.189 87.6987C45.5926 87.3518 45.1239 86.8832 44.7831 86.2928C44.4423 85.6964 44.2719 85.0238 44.2719 84.2752C44.2719 83.5266 44.4423 82.851 44.7831 82.2485C45.1239 81.646 45.5926 81.1682 46.189 80.8152C46.7916 80.4622 47.4793 80.2857 48.2523 80.2857C49.0191 80.2857 49.6978 80.4622 50.2881 80.8152C50.8846 81.1682 51.3502 81.646 51.6849 82.2485C52.0197 82.851 52.187 83.5266 52.187 84.2752C52.187 85.0238 52.0197 85.6964 51.6849 86.2928C51.3502 86.8832 50.8846 87.3518 50.2881 87.6987C49.6978 88.0456 49.0191 88.2191 48.2523 88.2191ZM48.2523 86.8588C48.7392 86.8588 49.1622 86.7462 49.5212 86.521C49.8864 86.2959 50.1694 85.9885 50.3703 85.599C50.5711 85.2034 50.6715 84.7591 50.6715 84.2661C50.6715 83.7731 50.5711 83.3288 50.3703 82.9332C50.1694 82.5376 49.8864 82.2242 49.5212 81.9929C49.1622 81.7616 48.7392 81.646 48.2523 81.646C47.7593 81.646 47.3302 81.7616 46.965 81.9929C46.5999 82.2242 46.3138 82.5376 46.1069 82.9332C45.906 83.3288 45.8056 83.7731 45.8056 84.2661C45.8056 84.7591 45.906 85.2034 46.1069 85.599C46.3138 85.9885 46.5999 86.2959 46.965 86.521C47.3302 86.7462 47.7593 86.8588 48.2523 86.8588ZM57.5268 92.0078C56.9365 92.0078 56.4009 91.9469 55.9201 91.8252C55.4453 91.7035 55.0284 91.53 54.6694 91.3048C54.3163 91.0857 54.0333 90.8271 53.8203 90.5288L54.8611 89.5337C54.9767 89.692 55.1319 89.8593 55.3267 90.0358C55.5275 90.2184 55.7983 90.3736 56.1392 90.5014C56.48 90.6293 56.9243 90.6932 57.4721 90.6932C58.0077 90.6932 58.4611 90.5775 58.8323 90.3462C59.2036 90.1211 59.4866 89.8137 59.6814 89.4242C59.8761 89.0347 59.9735 88.5965 59.9735 88.1096V87.8631H61.5255V88.21C61.5255 89.0377 61.346 89.7315 60.9869 90.2915C60.6339 90.8575 60.1561 91.2835 59.5536 91.5696C58.951 91.8617 58.2754 92.0078 57.5268 92.0078ZM59.9735 88V86.5393C59.9248 86.6915 59.7818 86.9014 59.5444 87.1692C59.3132 87.437 58.9936 87.6805 58.5858 87.8996C58.1842 88.1126 57.7094 88.2191 57.1617 88.2191C56.4678 88.2191 55.8379 88.0548 55.2719 87.7261C54.712 87.3975 54.2646 86.938 53.9299 86.3476C53.6012 85.7511 53.4369 85.0543 53.4369 84.257C53.4369 83.4597 53.6012 82.7658 53.9299 82.1755C54.2646 81.579 54.712 81.1165 55.2719 80.7878C55.8379 80.4531 56.4678 80.2857 57.1617 80.2857C57.7033 80.2857 58.172 80.3831 58.5676 80.5778C58.9693 80.7726 59.2888 80.9978 59.5262 81.2534C59.7696 81.509 59.9126 81.7281 59.9553 81.9107V80.5048H61.5255V88H59.9735ZM55.0071 84.257C55.0071 84.7986 55.1258 85.2673 55.3632 85.6629C55.6005 86.0585 55.9079 86.3658 56.2852 86.5849C56.6687 86.798 57.0765 86.9045 57.5086 86.9045C57.9711 86.9045 58.385 86.7949 58.7502 86.5758C59.1153 86.3567 59.4044 86.0494 59.6175 85.6538C59.8305 85.2521 59.937 84.7865 59.937 84.257C59.937 83.7275 59.8305 83.2649 59.6175 82.8693C59.4044 82.4676 59.1153 82.1572 58.7502 81.9381C58.385 81.7129 57.9711 81.6003 57.5086 81.6003C57.0765 81.6003 56.6687 81.7099 56.2852 81.929C55.9079 82.1481 55.6005 82.4554 55.3632 82.851C55.1258 83.2466 55.0071 83.7153 55.0071 84.257ZM67.1886 88.2191C66.4156 88.2191 65.7279 88.0456 65.1253 87.6987C64.5289 87.3518 64.0602 86.8832 63.7194 86.2928C63.3786 85.6964 63.2082 85.0238 63.2082 84.2752C63.2082 83.5266 63.3786 82.851 63.7194 82.2485C64.0602 81.646 64.5289 81.1682 65.1253 80.8152C65.7279 80.4622 66.4156 80.2857 67.1886 80.2857C67.9554 80.2857 68.634 80.4622 69.2244 80.8152C69.8209 81.1682 70.2865 81.646 70.6212 82.2485C70.9559 82.851 71.1233 83.5266 71.1233 84.2752C71.1233 85.0238 70.9559 85.6964 70.6212 86.2928C70.2865 86.8832 69.8209 87.3518 69.2244 87.6987C68.634 88.0456 67.9554 88.2191 67.1886 88.2191ZM67.1886 86.8588C67.6755 86.8588 68.0985 86.7462 68.4575 86.521C68.8227 86.2959 69.1057 85.9885 69.3066 85.599C69.5074 85.2034 69.6078 84.7591 69.6078 84.2661C69.6078 83.7731 69.5074 83.3288 69.3066 82.9332C69.1057 82.5376 68.8227 82.2242 68.4575 81.9929C68.0985 81.7616 67.6755 81.646 67.1886 81.646C66.6956 81.646 66.2665 81.7616 65.9013 81.9929C65.5361 82.2242 65.2501 82.5376 65.0432 82.9332C64.8423 83.3288 64.7419 83.7731 64.7419 84.2661C64.7419 84.7591 64.8423 85.2034 65.0432 85.599C65.2501 85.9885 65.5361 86.2959 65.9013 86.521C66.2665 86.7462 66.6956 86.8588 67.1886 86.8588ZM75.6963 80.2857C76.0858 80.2857 76.4479 80.3253 76.7827 80.4044C77.1235 80.4835 77.4156 80.5778 77.6591 80.6874C77.9086 80.7969 78.0851 80.8943 78.1886 80.9795L77.5587 81.9838C77.4369 81.8742 77.2178 81.7525 76.9013 81.6186C76.5849 81.4786 76.2319 81.4086 75.8423 81.4086C75.4163 81.4086 75.0542 81.4938 74.7559 81.6642C74.4577 81.8286 74.3086 82.069 74.3086 82.3854C74.3086 82.7019 74.4608 82.9545 74.7651 83.1432C75.0755 83.3258 75.4893 83.4779 76.0067 83.5996C76.4205 83.697 76.807 83.8279 77.1661 83.9922C77.5313 84.1565 77.8265 84.3848 78.0516 84.6769C78.2768 84.963 78.3894 85.3464 78.3894 85.8272C78.3894 86.2654 78.2981 86.6397 78.1155 86.9501C77.933 87.2544 77.6865 87.5009 77.3761 87.6896C77.0657 87.8722 76.7188 88.0061 76.3353 88.0913C75.9519 88.1765 75.5624 88.2191 75.1668 88.2191C74.7042 88.2191 74.2873 88.1704 73.916 88.073C73.5448 87.9817 73.2313 87.8722 72.9757 87.7444C72.7262 87.6105 72.5436 87.4948 72.428 87.3975L73.0579 86.2654C73.2161 86.4176 73.4748 86.5789 73.8339 86.7493C74.1991 86.9197 74.6129 87.0049 75.0755 87.0049C75.5867 87.0049 76.0006 86.8984 76.3171 86.6854C76.6335 86.4663 76.7918 86.1833 76.7918 85.8363C76.7918 85.5746 76.7157 85.3647 76.5636 85.2064C76.4114 85.0482 76.2075 84.9204 75.9519 84.823C75.6963 84.7256 75.4163 84.6404 75.112 84.5674C74.8198 84.5004 74.5338 84.4122 74.2538 84.3026C73.9799 84.1931 73.7274 84.0531 73.4961 83.8827C73.2709 83.7062 73.0914 83.4931 72.9575 83.2436C72.8236 82.988 72.7566 82.6898 72.7566 82.3489C72.7566 81.9168 72.8936 81.5486 73.1674 81.2443C73.4413 80.9339 73.8004 80.6965 74.2447 80.5322C74.689 80.3679 75.1729 80.2857 75.6963 80.2857Z" fill="black"/>
<path d="M50.9196 42.3817V49.7151M47.253 46.0484H54.5863M65.3901 34.1262H50.6116C48.0738 34.1267 45.6401 35.1352 43.8458 36.9299C42.0515 38.7245 41.0435 41.1584 41.0435 43.6962V58.8487C41.0435 62.6529 45.6873 64.5046 48.3071 61.7472L53.7631 56.0016H62.2405L67.5113 62.3449C70.0303 65.3772 74.9601 63.5952 74.9601 59.6554V43.6944C74.9596 41.1569 73.9514 38.7235 72.1571 36.9292C70.3629 35.1349 67.9276 34.1267 65.3901 34.1262Z" stroke="#5E3C9E" stroke-width="2.625" stroke-linecap="round" stroke-linejoin="round"/>
<path d="M62.8802 46.0484C63.8927 46.0484 64.7135 45.2276 64.7135 44.215C64.7135 43.2025 63.8927 42.3817 62.8802 42.3817C61.8677 42.3817 61.0469 43.2025 61.0469 44.215C61.0469 45.2276 61.8677 46.0484 62.8802 46.0484Z" fill="#5E3C9E"/>
<path d="M66.9139 50.0817C67.9264 50.0817 68.7472 49.2609 68.7472 48.2484C68.7472 47.2359 67.9264 46.415 66.9139 46.415C65.9014 46.415 65.0806 47.2359 65.0806 48.2484C65.0806 49.2609 65.9014 50.0817 66.9139 50.0817Z" fill="#5E3C9E"/>
</svg>
