<svg width="115" height="115" viewBox="0 0 115 115" fill="none" xmlns="http://www.w3.org/2000/svg">
<rect width="115" height="115" rx="35" fill="white"/>
<path d="M37.7655 75.9492V88H36.2135V79.2997L36.2956 77.9668L35.967 79.4367L33.0639 87.3153H31.521L28.6179 79.4367L28.2983 77.9668L28.3714 79.2997V88H26.8102V75.9492H28.8917L32.1783 85.4073L32.2879 86.0189L32.4065 85.4073L35.7022 75.9492H37.7655ZM41.2676 84.5765C41.2737 85.0269 41.371 85.4377 41.5597 85.809C41.7484 86.1802 42.0284 86.4754 42.3996 86.6945C42.777 86.9136 43.2395 87.0232 43.7873 87.0232C44.2498 87.0232 44.6424 86.9562 44.965 86.8223C45.2936 86.6823 45.5614 86.518 45.7684 86.3293C45.9753 86.1346 46.1244 85.9611 46.2157 85.809L46.9917 86.7675C46.7908 87.0597 46.5444 87.3153 46.2522 87.5344C45.9662 87.7535 45.6162 87.9209 45.2023 88.0365C44.7885 88.1582 44.2833 88.2191 43.6869 88.2191C42.8835 88.2191 42.1866 88.0487 41.5962 87.7079C41.012 87.3609 40.5616 86.8832 40.2451 86.2746C39.9286 85.6598 39.7704 84.9569 39.7704 84.1657C39.7704 83.4353 39.9195 82.778 40.2177 82.1937C40.5159 81.6034 40.9481 81.1378 41.5141 80.7969C42.0862 80.4561 42.7739 80.2857 43.5773 80.2857C44.3137 80.2857 44.9528 80.4409 45.4945 80.7513C46.0422 81.0556 46.4652 81.4877 46.7635 82.0477C47.0678 82.6076 47.2199 83.2771 47.2199 84.0561C47.2199 84.1048 47.2169 84.1931 47.2108 84.3209C47.2047 84.4426 47.1986 84.5278 47.1925 84.5765H41.2676ZM45.7045 83.3805C45.6984 83.131 45.6253 82.8571 45.4853 82.5589C45.3515 82.2607 45.1323 82.0051 44.828 81.792C44.5237 81.579 44.1129 81.4725 43.5956 81.4725C43.06 81.4725 42.6279 81.576 42.2992 81.7829C41.9766 81.9898 41.7393 82.2424 41.5871 82.5406C41.435 82.8328 41.3467 83.1127 41.3224 83.3805H45.7045ZM50.535 88H48.9556V80.5048H50.535V81.8012H50.4894C50.5198 81.6429 50.6324 81.4451 50.8272 81.2078C51.0219 80.9704 51.2897 80.7574 51.6305 80.5687C51.9714 80.38 52.3792 80.2857 52.8539 80.2857C53.2008 80.2857 53.5051 80.3344 53.7668 80.4318C54.0346 80.5231 54.2233 80.6143 54.3328 80.7056L53.6847 82.0203C53.5994 81.9351 53.4503 81.8499 53.2373 81.7646C53.0243 81.6734 52.7595 81.6277 52.4431 81.6277C52.0414 81.6277 51.6975 81.7525 51.4114 82.002C51.1254 82.2515 50.9063 82.5528 50.7541 82.9058C50.6081 83.2527 50.535 83.5753 50.535 83.8735V88ZM58.7299 86.9045C59.2046 86.9045 59.5881 86.8284 59.8802 86.6762C60.1724 86.5241 60.3549 86.4145 60.428 86.3476L61.204 87.4888C61.1431 87.5435 60.997 87.6318 60.7658 87.7535C60.5406 87.8691 60.2484 87.9757 59.8893 88.073C59.5363 88.1704 59.1346 88.2191 58.6843 88.2191C57.9965 88.2191 57.3575 88.0669 56.7671 87.7626C56.1767 87.4522 55.699 87.0019 55.3338 86.4115C54.9747 85.8211 54.7952 85.0999 54.7952 84.2478C54.7952 83.3897 54.9747 82.6685 55.3338 82.0842C55.699 81.4938 56.1767 81.0465 56.7671 80.7422C57.3575 80.4378 57.9965 80.2857 58.6843 80.2857C59.1286 80.2857 59.5242 80.3405 59.8711 80.45C60.218 80.5535 60.5041 80.6691 60.7292 80.7969C60.9544 80.9247 61.1035 81.0221 61.1766 81.0891L60.3915 82.2302C60.3428 82.1816 60.2484 82.1085 60.1084 82.0111C59.9745 81.9077 59.792 81.8133 59.5607 81.7281C59.3294 81.6429 59.0525 81.6003 58.7299 81.6003C58.3404 81.6003 57.96 81.7068 57.5887 81.9198C57.2236 82.1268 56.9223 82.428 56.6849 82.8237C56.4476 83.2193 56.3289 83.694 56.3289 84.2478C56.3289 84.8017 56.4476 85.2795 56.6849 85.6811C56.9223 86.0767 57.2236 86.3811 57.5887 86.5941C57.96 86.801 58.3404 86.9045 58.7299 86.9045ZM68.8003 88V86.5393C68.7516 86.6915 68.6086 86.9014 68.3712 87.1692C68.14 87.437 67.8204 87.6805 67.4126 87.8996C67.011 88.1126 66.5362 88.2191 65.9885 88.2191C65.2946 88.2191 64.6647 88.0548 64.0987 87.7261C63.5388 87.3975 63.0914 86.938 62.7567 86.3476C62.428 85.7511 62.2637 85.0543 62.2637 84.257C62.2637 83.4597 62.428 82.7658 62.7567 82.1755C63.0914 81.579 63.5388 81.1165 64.0987 80.7878C64.6647 80.4531 65.2946 80.2857 65.9885 80.2857C66.5301 80.2857 66.9988 80.3831 67.3944 80.5778C67.7961 80.7726 68.1156 80.9978 68.353 81.2534C68.5964 81.509 68.7394 81.7281 68.7821 81.9107V80.5048H70.3523V88H68.8003ZM63.8339 84.257C63.8339 84.7986 63.9526 85.2673 64.19 85.6629C64.4273 86.0585 64.7347 86.3658 65.112 86.5849C65.4955 86.798 65.9033 86.9045 66.3354 86.9045C66.7979 86.9045 67.2118 86.7949 67.577 86.5758C67.9422 86.3567 68.2312 86.0494 68.4443 85.6538C68.6573 85.2521 68.7638 84.7865 68.7638 84.257C68.7638 83.7275 68.6573 83.2649 68.4443 82.8693C68.2312 82.4676 67.9422 82.1572 67.577 81.9381C67.2118 81.7129 66.7979 81.6003 66.3354 81.6003C65.9033 81.6003 65.4955 81.7099 65.112 81.929C64.7347 82.1481 64.4273 82.4554 64.19 82.851C63.9526 83.2466 63.8339 83.7153 63.8339 84.257ZM75.7797 88.2191C75.092 88.2191 74.4742 88.0548 73.9264 87.7261C73.3848 87.3975 72.9557 86.938 72.6392 86.3476C72.3288 85.7511 72.1736 85.0543 72.1736 84.257C72.1736 83.4597 72.3288 82.7658 72.6392 82.1755C72.9557 81.579 73.3848 81.1165 73.9264 80.7878C74.4742 80.4531 75.092 80.2857 75.7797 80.2857C76.3336 80.2857 76.8205 80.3831 77.2404 80.5778C77.6604 80.7665 77.9951 80.9887 78.2446 81.2443C78.4942 81.4999 78.6372 81.722 78.6737 81.9107V75.438H80.2714V88H78.7011V86.5393C78.6342 86.7462 78.4668 86.9806 78.199 87.2423C77.9373 87.504 77.5995 87.7322 77.1856 87.927C76.7718 88.1217 76.3031 88.2191 75.7797 88.2191ZM76.1449 86.9045C76.6074 86.9045 77.0304 86.7949 77.4139 86.5758C77.7973 86.3567 78.1016 86.0494 78.3268 85.6538C78.5581 85.2521 78.6737 84.7865 78.6737 84.257C78.6737 83.7275 78.5581 83.2649 78.3268 82.8693C78.1016 82.4676 77.7973 82.1572 77.4139 81.9381C77.0304 81.7129 76.6074 81.6003 76.1449 81.6003C75.7188 81.6003 75.3232 81.7099 74.9581 81.929C74.5929 82.1481 74.2977 82.4554 74.0725 82.851C73.8534 83.2466 73.7439 83.7153 73.7439 84.257C73.7439 84.7986 73.8534 85.2673 74.0725 85.6629C74.2977 86.0585 74.5929 86.3658 74.9581 86.5849C75.3232 86.798 75.7188 86.9045 76.1449 86.9045ZM85.5192 88.2191C84.7462 88.2191 84.0585 88.0456 83.4559 87.6987C82.8595 87.3518 82.3908 86.8832 82.05 86.2928C81.7092 85.6964 81.5388 85.0238 81.5388 84.2752C81.5388 83.5266 81.7092 82.851 82.05 82.2485C82.3908 81.646 82.8595 81.1682 83.4559 80.8152C84.0585 80.4622 84.7462 80.2857 85.5192 80.2857C86.286 80.2857 86.9647 80.4622 87.555 80.8152C88.1515 81.1682 88.6171 81.646 88.9518 82.2485C89.2866 82.851 89.4539 83.5266 89.4539 84.2752C89.4539 85.0238 89.2866 85.6964 88.9518 86.2928C88.6171 86.8832 88.1515 87.3518 87.555 87.6987C86.9647 88.0456 86.286 88.2191 85.5192 88.2191ZM85.5192 86.8588C86.0061 86.8588 86.4291 86.7462 86.7882 86.521C87.1533 86.2959 87.4363 85.9885 87.6372 85.599C87.838 85.2034 87.9385 84.7591 87.9385 84.2661C87.9385 83.7731 87.838 83.3288 87.6372 82.9332C87.4363 82.5376 87.1533 82.2242 86.7882 81.9929C86.4291 81.7616 86.0061 81.646 85.5192 81.646C85.0262 81.646 84.5971 81.7616 84.2319 81.9929C83.8668 82.2242 83.5807 82.5376 83.3738 82.9332C83.1729 83.3288 83.0725 83.7731 83.0725 84.2661C83.0725 84.7591 83.1729 85.2034 83.3738 85.599C83.5807 85.9885 83.8668 86.2959 84.2319 86.521C84.5971 86.7462 85.0262 86.8588 85.5192 86.8588Z" fill="black"/>
<path d="M46.9966 36.1601C47.1216 36.0982 47.2577 36.0615 47.3969 36.0522C47.5362 36.0429 47.6759 36.0611 47.8081 36.1058C47.9404 36.1505 48.0625 36.2208 48.1675 36.3127C48.2725 36.4046 48.3584 36.5163 48.4203 36.6414L49.2607 38.3456L50.9746 36.5075C51.1666 36.3014 51.4327 36.1801 51.7142 36.1701C51.9957 36.1601 52.2697 36.2624 52.4759 36.4544C52.9041 36.856 52.9274 37.5286 52.5279 37.9578L50.2669 40.3835L51.1201 42.1111L52.5343 40.8223C52.6375 40.7284 52.7583 40.6557 52.8896 40.6084C53.0209 40.5612 53.1603 40.5402 53.2997 40.5469C53.4391 40.5535 53.5759 40.5875 53.7022 40.647C53.8284 40.7064 53.9417 40.7902 54.0356 40.8935C54.1299 40.9968 54.2028 41.1177 54.2503 41.2492C54.2977 41.3807 54.3187 41.5203 54.3121 41.66C54.3055 41.7997 54.2714 41.9367 54.2117 42.0631C54.1521 42.1896 54.068 42.303 53.9644 42.3969L52.0997 44.0948L53.2217 46.3675C53.3469 46.6201 53.3665 46.9121 53.2763 47.1792C53.1862 47.4463 52.9936 47.6667 52.741 47.7918C52.4883 47.9169 52.1964 47.9365 51.9292 47.8464C51.6621 47.7562 51.4418 47.5636 51.3167 47.311L50.1532 44.9533L48.0665 45.3762C47.7899 45.4321 47.5024 45.3759 47.2673 45.2199C47.0322 45.0639 46.8687 44.8208 46.8127 44.5442C46.7568 44.2677 46.813 43.9802 46.969 43.7451C47.1251 43.51 47.3681 43.3464 47.6447 43.2905L49.1789 42.9802L48.3342 41.2696L45.1042 41.7562C44.8253 41.7981 44.5411 41.7274 44.3142 41.5597C44.0874 41.3921 43.9364 41.1411 43.8946 40.8622C43.8527 40.5832 43.9234 40.299 44.0911 40.0722C44.2588 39.8453 44.5097 39.6943 44.7887 39.6525L47.3451 39.2668L46.5152 37.5849C46.4532 37.4597 46.4164 37.3236 46.407 37.1842C46.3976 37.0449 46.4157 36.905 46.4604 36.7727C46.5052 36.6403 46.5755 36.5181 46.6675 36.413C46.7595 36.3079 46.8713 36.2219 46.9966 36.1601ZM71.0091 45.577C71.1479 45.5626 71.2882 45.5757 71.422 45.6155C71.5558 45.6553 71.6804 45.7211 71.7887 45.8092C71.8971 45.8972 71.987 46.0057 72.0534 46.1285C72.1198 46.2512 72.1614 46.3859 72.1757 46.5247C72.3882 48.5509 71.4957 50.4666 69.8095 51.6077C69.5756 51.7527 69.2946 51.8015 69.0255 51.7438C68.7563 51.6861 68.52 51.5264 68.3661 51.2983C68.2122 51.0701 68.1526 50.7912 68.1998 50.5201C68.2471 50.249 68.3975 50.0066 68.6195 49.844C69.1221 49.5107 69.5229 49.0449 69.7775 48.4982C70.0321 47.9515 70.1307 47.345 70.0624 46.7458C70.0476 46.6068 70.0605 46.4664 70.1001 46.3324C70.1397 46.1984 70.2054 46.0736 70.2933 45.965C70.3813 45.8565 70.4897 45.7663 70.6125 45.6997C70.7354 45.6332 70.8701 45.5914 71.0091 45.577Z" fill="#5E3C9E"/>
<path fill-rule="evenodd" clip-rule="evenodd" d="M42.7411 67.6239C45.8903 67.4645 47.857 66.589 49.0789 65.2949C49.506 65.9047 50.2476 66.2617 51.052 66.1364C55.2743 65.4776 64.6838 63.7436 75.2589 60.0865C75.6563 59.9607 76.0033 59.7117 76.2495 59.3755C76.4958 59.0392 76.6286 58.6333 76.6286 58.2165C76.6286 57.7997 76.4958 57.3937 76.2495 57.0575C76.0033 56.7213 75.6563 56.4722 75.2589 56.3465C74.0597 55.9328 72.8778 55.5429 71.7133 55.1767C73.8224 54.0642 75.4406 52.1974 76.0738 49.828C77.5029 44.489 73.7523 39.8437 68.885 41.3217C68.5418 38.8715 69.3365 36.6148 71.4222 35.4089L70.3597 33.5665C67.78 35.0572 66.6962 37.6082 66.6866 40.2209C64.8581 38.8216 62.6417 38.7685 60.7579 39.7534C60.7499 39.4379 60.705 39.1245 60.624 38.8195C60.3 37.6072 59.434 36.7412 58.244 36.2429C57.9996 35.1209 57.4365 33.7588 56.373 32.743C55.1405 31.5679 53.3703 30.9835 51.0636 31.5509C50.4965 30.7756 49.735 30.1635 48.8558 29.7765C47.4373 29.1656 45.6555 29.1784 43.6453 30.3354C41.5447 31.3182 40.5321 32.7643 40.2527 34.2805C40.0636 35.3111 40.2283 36.2886 40.4992 37.06C38.7163 38.6229 38.1798 40.4079 38.4358 42.0899C38.6579 43.5444 39.4505 44.7875 40.2283 45.6312C39.9541 46.8924 40.1677 48.0972 40.9741 49.0588C41.1824 49.306 41.4197 49.5266 41.686 49.7207C41.6813 49.7638 41.6791 49.8071 41.6796 49.8504C41.7041 51.8245 41.8167 53.3853 42.2215 54.5987C40.9168 55.097 39.6864 56.1095 38.5644 57.6374C38.4407 57.8054 38.374 58.0085 38.374 58.217C38.374 58.4256 38.4407 58.6287 38.5644 58.7966C39.6768 60.3117 40.8966 61.3211 42.1896 61.8226C41.8454 62.9999 41.7115 64.549 41.6807 66.5805C41.6774 66.7198 41.7027 66.8584 41.755 66.9876C41.8074 67.1168 41.8857 67.2339 41.985 67.3317C42.0844 67.4295 42.2027 67.5059 42.3328 67.5561C42.4628 67.6064 42.6018 67.6294 42.7411 67.6239ZM51.0403 58.2165C51.0403 59.3109 50.9978 60.4052 50.8235 61.4412V64.0188C51.8541 63.8562 53.1897 63.631 54.7696 63.3292V59.3959H56.8946V62.9074C60.512 62.1599 64.0998 61.276 67.6503 60.2575V58.2175H69.7753V59.6307C71.2023 59.195 72.6653 58.7254 74.1528 58.2175C72.1145 57.5203 70.0597 56.872 67.9903 56.2732L67.8735 56.2838L64.3746 55.2765C63.8236 55.1328 63.2817 54.9946 62.749 54.8622V59.3959H60.624V54.3479C57.3818 53.5845 54.1128 52.9395 50.8235 52.4142V54.9918C50.9967 56.0277 51.0403 57.1221 51.0403 58.2165ZM48.6985 61.2552V55.1777C48.5498 54.3702 48.3107 53.687 47.9452 53.1239C47.3874 52.2644 46.3132 51.3708 43.8355 51.0414C43.8896 52.3409 44.0118 53.2514 44.236 53.924L44.882 55.8599L42.978 56.5866C42.3161 56.8395 41.583 57.3431 40.8201 58.2165C41.5745 59.0814 42.3023 59.5839 42.9578 59.8389L44.7779 60.5465L44.2286 62.4219C44.0267 63.1114 43.9013 64.056 43.8408 65.3905C46.3153 65.0611 47.3874 64.1686 47.9452 63.3101C48.3107 62.747 48.5498 62.0638 48.6996 61.2563M49.7058 50.5569C48.4892 49.6134 47.0378 48.8782 45.2635 48.7241C43.8248 48.5987 42.9971 48.161 42.6019 47.6903C42.2513 47.2727 42.0866 46.6416 42.4245 45.6641L42.6561 44.9947L42.1291 44.523C41.4544 43.9195 40.7075 42.8835 40.5375 41.77C40.3866 40.7755 40.6618 39.5218 42.4234 38.2457L43.1831 37.6964L42.7326 36.873C42.4457 36.3492 42.1907 35.5024 42.3437 34.6672C42.484 33.9065 42.9929 32.98 44.5813 32.2469L44.6281 32.2256L44.6716 32.2001C46.1846 31.3182 47.2748 31.4117 48.0185 31.7326C48.8239 32.0779 49.386 32.7632 49.6378 33.2732L50.0532 34.1126L50.9372 33.8077C52.9931 33.0958 54.1789 33.5888 54.9078 34.2847C55.7227 35.0625 56.1424 36.2695 56.2508 37.1673L56.3347 37.8685L57.0147 38.063C58.0092 38.3467 58.4321 38.8439 58.5734 39.3709C58.7328 39.9649 58.6159 40.8935 57.8934 42.1419C57.3498 43.0877 57.0089 44.1363 56.8925 45.221C56.5557 46.8924 56.7544 48.5764 57.3845 50.1107C57.478 50.4879 57.5757 50.8523 57.6681 51.1987L57.7053 51.3347C57.7237 51.4013 57.7397 51.4671 57.7531 51.5323C54.9354 50.9415 52.6319 50.5442 51.0541 50.2977C50.5878 50.2236 50.1114 50.3154 49.7058 50.5569ZM68.1826 54.1163C66.0606 53.5082 63.9251 52.9478 61.7779 52.4354C60.7436 51.6523 59.9275 50.617 59.4075 49.4285C59.0887 48.1047 58.8688 46.8137 58.9878 45.577C59.009 45.4729 59.0338 45.3687 59.0621 45.2646C59.6497 43.0695 61.0735 41.7658 62.4303 41.3578C63.6925 40.9785 65.1556 41.2802 66.3403 42.892L67.3465 44.2627L68.9041 43.5805C70.7348 42.7773 72.1511 43.248 73.0553 44.2085C74.0275 45.2423 74.6086 47.0825 74.0221 49.2787C73.3453 51.8054 71.0461 53.7094 68.1826 54.1163Z" fill="#5E3C9E"/>
</svg>
