<svg width="115" height="115" viewBox="0 0 115 115" fill="none" xmlns="http://www.w3.org/2000/svg">
<rect width="115" height="115" rx="35" fill="white"/>
<path d="M49.0167 75.9492V88H47.4647V79.2997L47.5469 77.9668L47.2182 79.4367L44.3151 87.3153H42.7722L39.8691 79.4367L39.5496 77.9668L39.6226 79.2997V88H38.0615V75.9492H40.143L43.4295 85.4073L43.5391 86.0189L43.6578 85.4073L46.9535 75.9492H49.0167ZM54.9929 88.2191C54.2199 88.2191 53.5322 88.0456 52.9296 87.6987C52.3332 87.3518 51.8645 86.8832 51.5237 86.2928C51.1829 85.6964 51.0125 85.0238 51.0125 84.2752C51.0125 83.5266 51.1829 82.851 51.5237 82.2485C51.8645 81.646 52.3332 81.1682 52.9296 80.8152C53.5322 80.4622 54.2199 80.2857 54.9929 80.2857C55.7597 80.2857 56.4383 80.4622 57.0287 80.8152C57.6252 81.1682 58.0908 81.646 58.4255 82.2485C58.7602 82.851 58.9276 83.5266 58.9276 84.2752C58.9276 85.0238 58.7602 85.6964 58.4255 86.2928C58.0908 86.8832 57.6252 87.3518 57.0287 87.6987C56.4383 88.0456 55.7597 88.2191 54.9929 88.2191ZM54.9929 86.8588C55.4798 86.8588 55.9028 86.7462 56.2618 86.521C56.627 86.2959 56.91 85.9885 57.1109 85.599C57.3117 85.2034 57.4121 84.7591 57.4121 84.2661C57.4121 83.7731 57.3117 83.3288 57.1109 82.9332C56.91 82.5376 56.627 82.2242 56.2618 81.9929C55.9028 81.7616 55.4798 81.646 54.9929 81.646C54.4999 81.646 54.0708 81.7616 53.7056 81.9929C53.3405 82.2242 53.0544 82.5376 52.8475 82.9332C52.6466 83.3288 52.5462 83.7731 52.5462 84.2661C52.5462 84.7591 52.6466 85.2034 52.8475 85.599C53.0544 85.9885 53.3405 86.2959 53.7056 86.521C54.0708 86.7462 54.4999 86.8588 54.9929 86.8588ZM63.9936 88.2191C63.3058 88.2191 62.6881 88.0548 62.1403 87.7261C61.5986 87.3975 61.1695 86.938 60.8531 86.3476C60.5427 85.7511 60.3875 85.0543 60.3875 84.257C60.3875 83.4597 60.5427 82.7658 60.8531 82.1755C61.1695 81.579 61.5986 81.1165 62.1403 80.7878C62.6881 80.4531 63.3058 80.2857 63.9936 80.2857C64.5474 80.2857 65.0343 80.3831 65.4543 80.5778C65.8742 80.7665 66.209 80.9887 66.4585 81.2443C66.708 81.4999 66.8511 81.722 66.8876 81.9107V75.438H68.4852V88H66.915V86.5393C66.848 86.7462 66.6806 86.9806 66.4128 87.2423C66.1511 87.504 65.8133 87.7322 65.3995 87.927C64.9856 88.1217 64.517 88.2191 63.9936 88.2191ZM64.3587 86.9045C64.8213 86.9045 65.2443 86.7949 65.6277 86.5758C66.0111 86.3567 66.3155 86.0494 66.5407 85.6538C66.7719 85.2521 66.8876 84.7865 66.8876 84.257C66.8876 83.7275 66.7719 83.2649 66.5407 82.8693C66.3155 82.4676 66.0111 82.1572 65.6277 81.9381C65.2443 81.7129 64.8213 81.6003 64.3587 81.6003C63.9327 81.6003 63.5371 81.7099 63.1719 81.929C62.8067 82.1481 62.5116 82.4554 62.2864 82.851C62.0673 83.2466 61.9577 83.7153 61.9577 84.257C61.9577 84.7986 62.0673 85.2673 62.2864 85.6629C62.5116 86.0585 62.8067 86.3658 63.1719 86.5849C63.5371 86.798 63.9327 86.9045 64.3587 86.9045ZM76.2892 88V86.5393C76.2405 86.6915 76.0975 86.9014 75.8602 87.1692C75.6289 87.437 75.3094 87.6805 74.9016 87.8996C74.4999 88.1126 74.0252 88.2191 73.4774 88.2191C72.7836 88.2191 72.1536 88.0548 71.5876 87.7261C71.0277 87.3975 70.5803 86.938 70.2456 86.3476C69.9169 85.7511 69.7526 85.0543 69.7526 84.257C69.7526 83.4597 69.9169 82.7658 70.2456 82.1755C70.5803 81.579 71.0277 81.1165 71.5876 80.7878C72.1536 80.4531 72.7836 80.2857 73.4774 80.2857C74.0191 80.2857 74.4877 80.3831 74.8833 80.5778C75.285 80.7726 75.6045 80.9978 75.8419 81.2534C76.0853 81.509 76.2284 81.7281 76.271 81.9107V80.5048H77.8412V88H76.2892ZM71.3229 84.257C71.3229 84.7986 71.4415 85.2673 71.6789 85.6629C71.9163 86.0585 72.2236 86.3658 72.601 86.5849C72.9844 86.798 73.3922 86.9045 73.8243 86.9045C74.2869 86.9045 74.7007 86.7949 75.0659 86.5758C75.4311 86.3567 75.7202 86.0494 75.9332 85.6538C76.1462 85.2521 76.2527 84.7865 76.2527 84.257C76.2527 83.7275 76.1462 83.2649 75.9332 82.8693C75.7202 82.4676 75.4311 82.1572 75.0659 81.9381C74.7007 81.7129 74.2869 81.6003 73.8243 81.6003C73.3922 81.6003 72.9844 81.7099 72.601 81.929C72.2236 82.1481 71.9163 82.4554 71.6789 82.851C71.4415 83.2466 71.3229 83.7153 71.3229 84.257Z" fill="black"/>
<path d="M72.417 62.0002C72.4134 61.9886 72.4087 61.9774 72.4029 61.9668L64.3275 44.7648L68.033 38.9465L68.0488 38.9219C68.2781 38.5395 68.3992 38.1021 68.3992 37.6562C68.3992 37.2104 68.2781 36.773 68.0488 36.3906C68.0365 36.3695 68.0224 36.3484 68.0084 36.3273L64.1799 30.8588V26.4062C64.1799 26.1265 64.0687 25.8583 63.871 25.6605C63.6732 25.4627 63.4049 25.3516 63.1252 25.3516C62.8455 25.3516 62.5772 25.4627 62.3794 25.6605C62.1816 25.8583 62.0705 26.1265 62.0705 26.4062V30.8219L61.0685 32.0734C60.6404 32.6085 60.0973 33.0404 59.4797 33.3372C58.862 33.634 58.1855 33.7881 57.5002 33.7881C56.8149 33.7881 56.1384 33.634 55.5207 33.3372C54.903 33.0404 54.36 32.6085 53.9318 32.0734L52.9299 30.8219V26.4062C52.9299 26.1265 52.8187 25.8583 52.621 25.6605C52.4232 25.4627 52.1549 25.3516 51.8752 25.3516C51.5955 25.3516 51.3272 25.4627 51.1294 25.6605C50.9316 25.8583 50.8205 26.1265 50.8205 26.4062V30.8588L46.992 36.3273C46.9779 36.3484 46.9638 36.3695 46.9515 36.3906C46.7223 36.773 46.6012 37.2104 46.6012 37.6562C46.6012 38.1021 46.7223 38.5395 46.9515 38.9219L46.9674 38.9465L50.6728 44.7648L42.5974 61.9668C42.5916 61.9774 42.5869 61.9886 42.5834 62.0002C42.4232 62.3744 42.3583 62.7824 42.3945 63.1878C42.4308 63.5932 42.567 63.9833 42.791 64.3231C43.015 64.663 43.3198 64.9419 43.678 65.135C44.0363 65.3282 44.4369 65.4294 44.8439 65.4297H70.1564C70.5636 65.4297 70.9644 65.3287 71.3229 65.1357C71.6814 64.9427 71.9864 64.6637 72.2106 64.3239C72.4348 63.984 72.5712 63.5938 72.6075 63.1882C72.6438 62.7827 72.579 62.3745 72.4187 62.0002H72.417ZM48.7568 37.832C48.7281 37.7817 48.7122 37.725 48.7107 37.667C48.7092 37.6091 48.722 37.5516 48.748 37.4998L51.9314 32.9506L52.283 33.3918C52.9088 34.1738 53.7025 34.8051 54.6052 35.239C55.508 35.6728 56.4968 35.8981 57.4984 35.8981C58.5 35.8981 59.4888 35.6728 60.3916 35.239C61.2944 34.8051 62.088 34.1738 62.7138 33.3918L63.0654 32.9506L66.2488 37.4963C66.2762 37.5474 66.2905 37.6044 66.2905 37.6624C66.2905 37.7204 66.2762 37.7774 66.2488 37.8285L62.5574 43.6293H52.4535L48.7568 37.832ZM70.4482 63.1621C70.4171 63.2115 70.3737 63.2521 70.3222 63.2798C70.2708 63.3075 70.2131 63.3214 70.1547 63.3203H44.8439C44.7868 63.3204 44.7305 63.3066 44.6799 63.2801C44.6292 63.2535 44.5859 63.215 44.5535 63.1679C44.5211 63.1208 44.5007 63.0666 44.494 63.0098C44.4874 62.953 44.4946 62.8955 44.5152 62.8422L52.5449 45.7422H62.4554L70.4834 62.8422C70.5046 62.8942 70.5125 62.9507 70.5064 63.0066C70.5003 63.0625 70.4803 63.1159 70.4482 63.1621Z" fill="#5E3C9E"/>
</svg>
